<?xml version="1.0" encoding="UTF-8"?>
<svg version="1.1" xmlns="http://www.w3.org/2000/svg" width="1316" height="1318">
<path d="M0 0 C434.28 0 868.56 0 1316 0 C1316 434.94 1316 869.88 1316 1318 C881.72 1318 447.44 1318 0 1318 C0 883.06 0 448.12 0 0 Z " fill="#FEFEFE" transform="translate(0,0)"/>
<path d="M0 0 C0 0.66 0 1.32 0 2 C1.423125 1.8453125 1.423125 1.8453125 2.875 1.6875 C7.40059153 1.66917777 10.67820755 3.59769381 14.5859375 5.7109375 C17.14932747 7.13800668 17.14932747 7.13800668 20.625 8.4375 C24.90997528 10.42128485 28.33830993 13.04822944 32 16 C32.54914063 16.43699219 33.09828125 16.87398437 33.6640625 17.32421875 C47.98365718 28.96347904 58.62488941 45.5292739 61 64 C62.58366914 99.09003484 62.58366914 99.09003484 52 113 C51.27240464 114.36490516 50.56467264 115.74054604 49.875 117.125 C46.76963225 122.83547869 42.49120325 127.3481097 38 132 C36.93458984 133.13501953 36.93458984 133.13501953 35.84765625 134.29296875 C34 136 34 136 32 136 C32 136.66 32 137.32 32 138 C25.05627717 143.30347334 16.99274021 147.51444412 9 151 C8.38898438 151.27142822 7.77796875 151.54285645 7.1484375 151.82250977 C-0.01284121 154.63407989 -7.14430023 154.47908186 -14.75 154.4375 C-16.67199219 154.4674707 -16.67199219 154.4674707 -18.6328125 154.49804688 C-30.54886371 154.49200425 -40.50972283 151.66671018 -50.9765625 146.05078125 C-53.10723624 144.87726869 -53.10723624 144.87726869 -56 144 C-56.33 143.34 -56.66 142.68 -57 142 C-57.99 141.484375 -58.98 140.96875 -60 140.4375 C-67.62954486 136.23890036 -73.6343805 128.74141937 -79 122 C-79 121.34 -79 120.68 -79 120 C-79.66 120 -80.32 120 -81 120 C-81.64910154 118.41800369 -82.29414694 116.83434276 -82.9375 115.25 C-83.29714844 114.36828125 -83.65679688 113.4865625 -84.02734375 112.578125 C-84.85356576 110.38813896 -85.49369943 108.28101729 -86 106 C-86.66 106 -87.32 106 -88 106 C-95.32211417 94.351182 -94.40421453 75.52200951 -92.46484375 62.37109375 C-91.78205778 59.50936237 -90.96586765 56.7779014 -90 54 C-89.69835937 53.06027344 -89.39671875 52.12054688 -89.0859375 51.15234375 C-83.94671403 35.96447602 -83.94671403 35.96447602 -78 32 C-77.5875 31.113125 -77.175 30.22625 -76.75 29.3125 C-72.14981594 20.60500874 -61.26642247 11.21402937 -51.9375 7.91796875 C-49.60500797 7.4574341 -47.37257846 7.11782557 -45 7 C-45 6.34 -45 5.68 -45 5 C-29.50103412 -0.10000978 -16.29973588 -2.71662265 0 0 Z " fill="#424244" transform="translate(731,120)"/>
<path d="M0 0 C2.48084623 1.31162565 4.96397974 2.3733046 7.5859375 3.3671875 C7.5859375 4.0271875 7.5859375 4.6871875 7.5859375 5.3671875 C8.1428125 5.6353125 8.6996875 5.9034375 9.2734375 6.1796875 C10.418125 6.7675 10.418125 6.7675 11.5859375 7.3671875 C12.3903125 7.7590625 13.1946875 8.1509375 14.0234375 8.5546875 C16.89040396 10.58254183 18.39118613 12.63343711 20.27734375 15.55078125 C21.57879963 17.46554608 21.57879963 17.46554608 23.484375 19.23046875 C29.58095334 25.42903446 33.97606979 33.1255 36.5859375 41.3671875 C37.35988553 43.35302489 38.14741493 45.33303956 38.9375 47.3125 C44.44448773 64.76235269 40.95982755 86.08318031 33.5859375 102.3671875 C32.32697401 104.75458649 30.9615438 107.0428872 29.5859375 109.3671875 C28.9259375 109.3671875 28.2659375 109.3671875 27.5859375 109.3671875 C27.245625 110.6975 27.245625 110.6975 26.8984375 112.0546875 C25.40774951 115.81690005 23.54227504 117.76588357 20.5859375 120.3671875 C19.79058594 121.09550781 18.99523437 121.82382813 18.17578125 122.57421875 C7.43357482 132.3671875 7.43357482 132.3671875 4.5859375 132.3671875 C4.2559375 133.3571875 3.9259375 134.3471875 3.5859375 135.3671875 C1.68509436 136.13419438 -0.22298618 136.88829554 -2.1640625 137.546875 C-4.38381747 138.35616067 -6.38850468 139.32856326 -8.4765625 140.4296875 C-23.78265508 148.23162574 -44.00268677 146.32229053 -60.4140625 143.3671875 C-60.4140625 142.7071875 -60.4140625 142.0471875 -60.4140625 141.3671875 C-61.4040625 141.3671875 -62.3940625 141.3671875 -63.4140625 141.3671875 C-63.4140625 140.7071875 -63.4140625 140.0471875 -63.4140625 139.3671875 C-64.00574219 139.17382812 -64.59742188 138.98046875 -65.20703125 138.78125 C-69.328727 137.42304031 -73.4091149 136.04668165 -77.4140625 134.3671875 C-77.4140625 133.7071875 -77.4140625 133.0471875 -77.4140625 132.3671875 C-78.50267578 131.9959375 -78.50267578 131.9959375 -79.61328125 131.6171875 C-89.88135042 127.0345067 -97.89423568 115.84657009 -103.4140625 106.3671875 C-103.91808594 105.58859375 -104.42210937 104.81 -104.94140625 104.0078125 C-106.72732924 100.80546783 -107.83343799 97.60031296 -108.9765625 94.1171875 C-109.39035156 92.87453125 -109.80414062 91.631875 -110.23046875 90.3515625 C-112.57473661 82.70546636 -113.75149093 75.62625583 -113.6640625 67.6171875 C-113.66019531 66.7519043 -113.65632812 65.88662109 -113.65234375 64.99511719 C-113.55842418 57.97462907 -112.82191622 51.25561463 -111.4140625 44.3671875 C-110.7540625 44.3671875 -110.0940625 44.3671875 -109.4140625 44.3671875 C-109.3521875 43.3771875 -109.2903125 42.3871875 -109.2265625 41.3671875 C-108.56207561 36.60984656 -106.07039663 33.26150452 -103.4140625 29.3671875 C-102.6096875 27.975 -102.6096875 27.975 -101.7890625 26.5546875 C-100.49707714 24.49925625 -99.117351 23.070476 -97.4140625 21.3671875 C-97.0840625 20.3771875 -96.7540625 19.3871875 -96.4140625 18.3671875 C-94.76403422 17.01331814 -93.0966238 15.68040608 -91.4140625 14.3671875 C-90.7540625 13.3771875 -90.0940625 12.3871875 -89.4140625 11.3671875 C-88.7540625 11.3671875 -88.0940625 11.3671875 -87.4140625 11.3671875 C-87.0840625 10.3771875 -86.7540625 9.3871875 -86.4140625 8.3671875 C-82.02485627 4.0675569 -77.33329111 1.77213428 -71.50390625 0.078125 C-68.45730157 -0.95829005 -66.06299531 -2.82928378 -63.4140625 -4.6328125 C-44.05470572 -13.67514581 -18.14823658 -9.81123154 0 0 Z " fill="#424244" transform="translate(751.4140625,1061.6328125)"/>
<path d="M0 0 C1.010625 0.309375 2.02125 0.61875 3.0625 0.9375 C13.23076923 4.61538462 13.23076923 4.61538462 18 7 C18 7.66 18 8.32 18 9 C18.70511719 9.061875 19.41023438 9.12375 20.13671875 9.1875 C23.86690325 10.2459971 26.08815695 12.37245208 28.8125 15 C29.59753906 15.7410498 29.59753906 15.7410498 30.3984375 16.49707031 C36.90007156 22.70716919 42.921109 28.90570269 47 37 C47.50660156 37.88429688 48.01320313 38.76859375 48.53515625 39.6796875 C52.47273338 46.84738109 53.97102162 52.82809812 54 61 C54.66 61 55.32 61 56 61 C56.05880857 64.95826931 56.09386513 68.91642392 56.125 72.875 C56.14175781 73.98359375 56.15851563 75.0921875 56.17578125 76.234375 C56.28964903 95.59189835 48.57789382 111.38987006 36 126 C35.14535156 126.99773437 35.14535156 126.99773437 34.2734375 128.015625 C28.42596515 134.33587171 21.30529271 138.57493022 14 143 C13.09765625 143.54914063 12.1953125 144.09828125 11.265625 144.6640625 C-0.80209726 151.77985735 -14.41021242 151.51476468 -28 151 C-29.85625 150.94972656 -29.85625 150.94972656 -31.75 150.8984375 C-45.16068184 149.86910885 -60.27545914 143.40517992 -70 134 C-70 133.34 -70 132.68 -70 132 C-70.8353125 131.6596875 -70.8353125 131.6596875 -71.6875 131.3125 C-81.52604301 125.72846208 -88.19052951 113.40322302 -92.80859375 103.49609375 C-94.00314894 100.84123844 -94.00314894 100.84123844 -96 98 C-99.22599425 81.5314985 -100.95978904 60.1959609 -93 45 C-92.34 45 -91.68 45 -91 45 C-90.938125 44.195625 -90.87625 43.39125 -90.8125 42.5625 C-89.14549207 35.25331137 -84.59352016 28.8350121 -80 23 C-79.34 23 -78.68 23 -78 23 C-77.67 22.01 -77.34 21.02 -77 20 C-75.29296875 18.28125 -75.29296875 18.28125 -73.1875 16.5 C-72.50042969 15.9121875 -71.81335937 15.324375 -71.10546875 14.71875 C-65.325 10 -65.325 10 -63 10 C-63 9.34 -63 8.68 -63 8 C-59.9216662 6.65490586 -56.83659075 5.32602447 -53.75 4 C-52.87730469 3.6184375 -52.00460937 3.236875 -51.10546875 2.84375 C-50.26113281 2.4828125 -49.41679688 2.121875 -48.546875 1.75 C-47.77182617 1.41484375 -46.99677734 1.0796875 -46.19824219 0.734375 C-44 0 -44 0 -40 0 C-40 -0.66 -40 -1.32 -40 -2 C-26.88996647 -3.89248447 -12.54785091 -4.75871327 0 0 Z " fill="#424244" transform="translate(1140,356)"/>
<path d="M0 0 C1.13179688 -0.00773437 2.26359375 -0.01546875 3.4296875 -0.0234375 C9.25025581 -0.00980619 14.20640088 0.29384221 19.75 2.25 C20.90242188 2.56839844 22.05484375 2.88679688 23.2421875 3.21484375 C24.35851562 3.53582031 25.47484375 3.85679687 26.625 4.1875 C27.75679688 4.50589844 28.88859375 4.82429688 30.0546875 5.15234375 C30.94414062 5.51457031 31.83359375 5.87679688 32.75 6.25 C33.245 7.735 33.245 7.735 33.75 9.25 C35.59725052 9.94159401 35.59725052 9.94159401 37.75 10.25 C39.08333333 10.58333333 40.41666667 10.91666667 41.75 11.25 C41.75 11.91 41.75 12.57 41.75 13.25 C42.636875 13.476875 43.52375 13.70375 44.4375 13.9375 C50.07509474 16.17126395 53.05576321 20.63220401 56.75 25.25 C57.513125 25.971875 58.27625 26.69375 59.0625 27.4375 C66.01853571 34.71707226 70.41968007 42.79579508 73.75 52.25 C74.23146484 53.54744141 74.23146484 53.54744141 74.72265625 54.87109375 C79.43066723 69.95862663 78.46324811 90.55879058 72.75 105.25 C72.09 105.25 71.43 105.25 70.75 105.25 C70.67265625 106.095625 70.5953125 106.94125 70.515625 107.8125 C69.60922713 111.88204144 67.79591125 114.84699885 65.5 118.25 C65.11714844 118.84039062 64.73429688 119.43078125 64.33984375 120.0390625 C61.72439071 124.0103524 58.94971377 127.7281674 55.75 131.25 C55.09 131.25 54.43 131.25 53.75 131.25 C53.42 132.24 53.09 133.23 52.75 134.25 C50.7890625 136.07421875 50.7890625 136.07421875 48.375 137.9375 C47.58351563 138.56011719 46.79203125 139.18273437 45.9765625 139.82421875 C43.75 141.25 43.75 141.25 40.75 141.25 C40.75 141.91 40.75 142.57 40.75 143.25 C37.47962401 146.52037599 34.2369746 146.81856013 29.75 147.25 C29.75 147.91 29.75 148.57 29.75 149.25 C8.67396116 155.85838844 -12.86219509 157.21796534 -33.31640625 147.2421875 C-34.98864041 146.29196943 -36.62079828 145.27224422 -38.25 144.25 C-39.9825 143.321875 -39.9825 143.321875 -41.75 142.375 C-45.60734388 140.1708035 -49.20104669 137.49356735 -52.25 134.25 C-52.25 133.59 -52.25 132.93 -52.25 132.25 C-53.24 131.92 -54.23 131.59 -55.25 131.25 C-56.85546875 129.69140625 -56.85546875 129.69140625 -58.4375 127.8125 C-58.96730469 127.19503906 -59.49710938 126.57757813 -60.04296875 125.94140625 C-61.25 124.25 -61.25 124.25 -61.25 122.25 C-61.91 122.25 -62.57 122.25 -63.25 122.25 C-64.09114171 120.81705502 -64.92265687 119.37845595 -65.75 117.9375 C-66.2140625 117.13699219 -66.678125 116.33648437 -67.15625 115.51171875 C-68.25 113.25 -68.25 113.25 -68.25 110.25 C-68.91 110.25 -69.57 110.25 -70.25 110.25 C-77.07608703 95.5236701 -77.68615388 81.16153965 -77.25 65.25 C-76.59 65.25 -75.93 65.25 -75.25 65.25 C-74.92 61.95 -74.59 58.65 -74.25 55.25 C-73.59 55.25 -72.93 55.25 -72.25 55.25 C-72.1675 54.115625 -72.085 52.98125 -72 51.8125 C-71.40436286 46.8429304 -69.46237727 42.6953348 -67.25 38.25 C-66.59 38.25 -65.93 38.25 -65.25 38.25 C-65.02570313 37.38246094 -64.80140625 36.51492188 -64.5703125 35.62109375 C-63.06453449 31.77645937 -60.94221068 29.2349869 -58.125 26.3125 C-57.63435059 25.79179932 -57.14370117 25.27109863 -56.63818359 24.73461914 C-51.44430181 19.28756314 -46.05314329 13.65157165 -39.25 10.25 C-38.59 10.25 -37.93 10.25 -37.25 10.25 C-37.25 9.59 -37.25 8.93 -37.25 8.25 C-35.64743892 7.74487756 -34.04288208 7.24608373 -32.4375 6.75 C-31.54417969 6.4715625 -30.65085937 6.193125 -29.73046875 5.90625 C-27.25 5.25 -27.25 5.25 -24.25 5.25 C-24.25 4.26 -24.25 3.27 -24.25 2.25 C-16.10586823 0.45066742 -8.32641558 -0.05768879 0 0 Z " fill="#424244" transform="translate(311.25,352.75)"/>
<path d="M0 0 C1.27166016 -0.01224609 2.54332031 -0.02449219 3.85351562 -0.03710938 C10.75535101 -0.04784318 16.90079755 0.35353839 23.5625 2.1875 C23.5625 2.8475 23.5625 3.5075 23.5625 4.1875 C24.408125 4.290625 25.25375 4.39375 26.125 4.5 C29.97692701 5.2703854 33.00325031 6.55024514 36.5625 8.1875 C36.5625 8.8475 36.5625 9.5075 36.5625 10.1875 C37.09875 10.290625 37.635 10.39375 38.1875 10.5 C41.2336608 11.38178339 43.81777994 12.60166174 46.5625 14.1875 C47.0575 15.6725 47.0575 15.6725 47.5625 17.1875 C48.88409366 17.87714659 50.21893647 18.54169874 51.5625 19.1875 C53.08984375 20.73828125 53.08984375 20.73828125 54.5 22.5 C56.2884169 24.68285471 58.00741778 26.6101719 60.0625 28.5625 C66.43933967 35.25818166 69.68145878 42.50579098 72.5625 51.1875 C73.1191551 52.6064735 73.68107783 54.02340019 74.25 55.4375 C78.62332752 67.9327215 78.27961739 86.55279111 74.5625 99.1875 C73.20508513 101.94122416 71.7030055 104.44595941 69.99609375 106.99609375 C68.38678756 109.29864153 68.38678756 109.29864153 67.1875 112.625 C63.06596893 121.66066427 55.09184867 133.24975356 45.79296875 137.43359375 C45.05691406 137.68238281 44.32085937 137.93117188 43.5625 138.1875 C43.5625 138.8475 43.5625 139.5075 43.5625 140.1875 C42.923125 140.290625 42.28375 140.39375 41.625 140.5 C40.6040625 140.8403125 40.6040625 140.8403125 39.5625 141.1875 C39.2325 142.1775 38.9025 143.1675 38.5625 144.1875 C36.19921875 145.35546875 36.19921875 145.35546875 33.25 146.375 C32.28449219 146.71917969 31.31898438 147.06335938 30.32421875 147.41796875 C27.5625 148.1875 27.5625 148.1875 23.5625 148.1875 C23.5625 148.8475 23.5625 149.5075 23.5625 150.1875 C15.673973 152.73745535 8.40474568 153.76871693 0.125 153.75 C-1.00156006 153.74758301 -2.12812012 153.74516602 -3.28881836 153.74267578 C-17.56329392 153.43387483 -31.07362378 150.0887755 -42.4375 141.1875 C-43.5925 140.589375 -44.7475 139.99125 -45.9375 139.375 C-57.51669044 132.86170538 -66.20349529 119.06061135 -71.4375 107.1875 C-71.83424497 105.19910755 -72.18456083 103.19924871 -72.4375 101.1875 C-73.4275 101.1875 -74.4175 101.1875 -75.4375 101.1875 C-79.30680688 83.38063198 -79.78707548 64.08962448 -72.4375 47.1875 C-72.16502441 46.55553711 -71.89254883 45.92357422 -71.61181641 45.27246094 C-69.98311564 41.52786544 -68.25904202 37.84310323 -66.4375 34.1875 C-65.7775 34.1875 -65.1175 34.1875 -64.4375 34.1875 C-64.1075 32.8675 -63.7775 31.5475 -63.4375 30.1875 C-62.7775 30.1875 -62.1175 30.1875 -61.4375 30.1875 C-61.004375 29.2903125 -61.004375 29.2903125 -60.5625 28.375 C-59.4375 26.1875 -59.4375 26.1875 -57.4375 23.1875 C-56.7775 23.1875 -56.1175 23.1875 -55.4375 23.1875 C-55.1075 22.1975 -54.7775 21.2075 -54.4375 20.1875 C-53.7775 20.1875 -53.1175 20.1875 -52.4375 20.1875 C-52.4375 19.5275 -52.4375 18.8675 -52.4375 18.1875 C-49.06576866 15.02650187 -45.46663773 13.10148656 -41.3046875 11.21484375 C-39.37371192 10.26837923 -39.37371192 10.26837923 -37.93359375 8.66015625 C-36.22256678 6.97593388 -34.88997905 6.4380256 -32.625 5.6875 C-30.03248837 4.79027375 -27.87195136 3.88116115 -25.4375 2.5625 C-17.70957223 -0.97946689 -8.31709293 0.00420267 0 0 Z " fill="#424244" transform="translate(177.4375,586.8125)"/>
<path d="M0 0 C0 0.66 0 1.32 0 2 C0.680625 2.0825 1.36125 2.165 2.0625 2.25 C5.98999525 3.25276474 8.62257557 4.72673356 12 7 C12.9375 9.25 12.9375 9.25 13 11 C14.0828125 11.0928125 14.0828125 11.0928125 15.1875 11.1875 C18.84790678 12.24495085 20.55416584 14.24263683 23 17 C23.60972656 17.61875 24.21945312 18.2375 24.84765625 18.875 C32.1676832 26.5476294 37.9340209 35.28623541 39 46 C39.66 46 40.32 46 41 46 C45.16397688 52.662363 44.18261715 61.9989594 44.1875 69.5625 C44.19974609 70.56474609 44.21199219 71.56699219 44.22460938 72.59960938 C44.23551532 78.12165311 43.8355269 82.73088258 42 88 C41.65839844 89.12921875 41.31679687 90.2584375 40.96484375 91.421875 C40.45630859 93.06929687 40.45630859 93.06929687 39.9375 94.75 C39.59589844 95.85859375 39.25429687 96.9671875 38.90234375 98.109375 C38.287491 100.07903316 37.65250266 102.04249203 37 104 C36.34 104 35.68 104 35 104 C34.89300781 104.55816406 34.78601562 105.11632812 34.67578125 105.69140625 C30.81915177 118.86636592 19.21049736 128.00037069 8.375 135.3671875 C6.33685359 136.76841316 4.39299301 138.2381142 2.4375 139.75 C-11.51027345 149.62023411 -34.15495168 148.43482665 -50.375 146.4375 C-61.11097821 144.27187349 -71.27160262 138.41793925 -80 132 C-80.71929688 131.50628906 -81.43859375 131.01257813 -82.1796875 130.50390625 C-86.53049612 127.43602837 -89.17222414 124.58294708 -92 120 C-92.76570313 119.31292969 -93.53140625 118.62585938 -94.3203125 117.91796875 C-97.81277355 114.11495358 -99.60473066 110.0585699 -101.6875 105.375 C-102.46028712 103.673591 -103.23495063 101.97303269 -104.01171875 100.2734375 C-104.51384888 99.15074463 -104.51384888 99.15074463 -105.02612305 98.00537109 C-106.05640921 95.76859948 -106.05640921 95.76859948 -108 93 C-111.18816836 77.64955976 -110.26480405 62.38853466 -108 47 C-107.34 47 -106.68 47 -106 47 C-105.505 44.03 -105.505 44.03 -105 41 C-104.34 41 -103.68 41 -103 41 C-102.690625 39.0509375 -102.690625 39.0509375 -102.375 37.0625 C-101.1863571 31.63608678 -98.64210914 27.1864461 -95 23 C-94.34 23 -93.68 23 -93 23 C-92.7525 22.42894531 -92.505 21.85789062 -92.25 21.26953125 C-86.63890438 11.08188577 -74.427979 3.49481854 -64 -1 C-62.68 -1 -61.36 -1 -60 -1 C-60 -1.66 -60 -2.32 -60 -3 C-39.84722963 -7.0889679 -19.18764564 -8.68186248 0 0 Z " fill="#424244" transform="translate(1152,826)"/>
<path d="M0 0 C1.56331055 0.0009668 1.56331055 0.0009668 3.15820312 0.00195312 C20.02684492 0.09725619 20.02684492 0.09725619 26.01953125 4.01171875 C30.16076993 6.25768784 34.7989111 7.50484777 39.2734375 8.94140625 C40.23507812 9.35261719 41.19671875 9.76382812 42.1875 10.1875 C42.6825 11.6725 42.6825 11.6725 43.1875 13.1875 C43.909375 13.249375 44.63125 13.31125 45.375 13.375 C48.34674873 14.23350519 49.62186385 15.29210133 51.67578125 17.546875 C52.83749558 18.80765024 54.05457759 20.01757799 55.29296875 21.203125 C60.44315359 26.13764046 64.44130938 31.14083176 68.1875 37.1875 C68.84878906 38.09242188 69.51007813 38.99734375 70.19140625 39.9296875 C72.52783301 43.74295543 73.65992695 47.33697328 74.8125 51.625 C75.11800781 52.71264648 75.11800781 52.71264648 75.4296875 53.82226562 C75.83310611 55.26138393 76.22985777 56.70238927 76.61962891 58.14526367 C77.13845695 60.01112636 77.72225507 61.8586096 78.3125 63.703125 C79.32284491 67.72646277 79.57116962 71.36915309 79.5625 75.5 C79.56117065 76.6588269 79.56117065 76.6588269 79.55981445 77.84106445 C79.33678082 89.04822137 76.84477585 100.00554735 72.1875 110.1875 C71.5275 110.1875 70.8675 110.1875 70.1875 110.1875 C70.05021484 111.26257813 70.05021484 111.26257813 69.91015625 112.359375 C67.54505784 121.61521961 57.13284844 132.93437707 49.1875 138.1875 C48.5275 138.1875 47.8675 138.1875 47.1875 138.1875 C47.1875 138.8475 47.1875 139.5075 47.1875 140.1875 C39.75830395 145.90613624 28.73576103 151.78757555 19.1875 151.1875 C19.1875 151.8475 19.1875 152.5075 19.1875 153.1875 C6.34753524 155.8114124 -7.81247957 155.28503384 -20.4375 151.9375 C-21.21182373 151.73302246 -21.98614746 151.52854492 -22.78393555 151.31787109 C-27.27183491 149.9956373 -30.24663926 148.31162934 -33.8125 145.1875 C-34.864375 144.775 -35.91625 144.3625 -37 143.9375 C-51.15823952 138.17613846 -61.78140318 123.7474826 -67.8125 110.1875 C-67.8125 109.5275 -67.8125 108.8675 -67.8125 108.1875 C-68.4725 108.1875 -69.1325 108.1875 -69.8125 108.1875 C-70.55793009 105.01693734 -71.29327579 101.8447805 -72.01171875 98.66796875 C-72.46334228 96.70505869 -72.93191052 94.74531922 -73.45703125 92.80078125 C-74.92016029 86.93773897 -75.02133604 81.13658511 -75.0625 75.125 C-75.07176514 74.28573975 -75.08103027 73.44647949 -75.09057617 72.58178711 C-75.04691472 63.8435039 -73.03123564 56.25011722 -69.8125 48.1875 C-69.24690203 46.68866539 -68.68431833 45.18868928 -68.125 43.6875 C-67.4753125 41.955 -67.4753125 41.955 -66.8125 40.1875 C-66.1525 40.1875 -65.4925 40.1875 -64.8125 40.1875 C-64.4825 38.5375 -64.1525 36.8875 -63.8125 35.1875 C-63.1525 35.1875 -62.4925 35.1875 -61.8125 35.1875 C-61.57402344 34.47078125 -61.33554687 33.7540625 -61.08984375 33.015625 C-59.6140918 29.74821089 -57.78682728 27.58298542 -55.375 24.9375 C-54.59253906 24.06609375 -53.81007813 23.1946875 -53.00390625 22.296875 C-50.8125 20.1875 -50.8125 20.1875 -47.8125 19.1875 C-47.8125 18.5275 -47.8125 17.8675 -47.8125 17.1875 C-45.80078125 15.56640625 -45.80078125 15.56640625 -43.125 13.75 C-42.25488281 13.15316406 -41.38476562 12.55632812 -40.48828125 11.94140625 C-39.60527344 11.36261719 -38.72226562 10.78382813 -37.8125 10.1875 C-37.03132812 9.671875 -36.25015625 9.15625 -35.4453125 8.625 C-32.21283309 6.86008543 -28.87172112 5.73014516 -25.375 4.625 C-24.73240234 4.41681641 -24.08980469 4.20863281 -23.42773438 3.99414062 C-21.55714856 3.38833669 -19.68484664 2.78783972 -17.8125 2.1875 C-16.91015625 1.81109375 -16.0078125 1.4346875 -15.078125 1.046875 C-10.0732913 -0.2701865 -5.15062747 -0.05985439 0 0 Z " fill="#424244" transform="translate(578.8125,352.8125)"/>
<path d="M0 0 C2.75540884 2.19854144 5.32918633 4.46145193 7.8515625 6.921875 C10.01078335 9.08988775 10.01078335 9.08988775 12.69140625 11.0625 C15.53105384 13.44568986 16.11425593 15.4570237 17 19 C17.66 19 18.32 19 19 19 C19 19.66 19 20.32 19 21 C19.66 21 20.32 21 21 21 C21.33 22.65 21.66 24.3 22 26 C22.66 26 23.32 26 24 26 C24.71471557 28.14414671 25.4289312 30.28844122 26.140625 32.43359375 C26.68322291 34.05398843 27.23420636 35.67162118 27.796875 37.28515625 C28.17585938 38.38150391 28.17585938 38.38150391 28.5625 39.5 C28.79066406 40.1496875 29.01882813 40.799375 29.25390625 41.46875 C31.42934737 48.84930417 32.33080606 55.67664138 32.25 63.375 C32.24395752 64.29893555 32.23791504 65.22287109 32.23168945 66.17480469 C32.0882168 76.04224517 30.42576728 84.75042835 27 94 C26.34 94 25.68 94 25 94 C24.9175 95.0725 24.835 96.145 24.75 97.25 C23.89117612 101.54411939 23.04633686 102.07082995 20 105 C18.89200083 106.48134672 17.78537888 107.96397878 16.70532227 109.46582031 C5.31310703 125.14771108 -11.83971385 136.15823373 -31 140 C-35.79954062 140.45223313 -40.55659643 140.50997599 -45.375 140.5 C-46.6125 140.52835938 -47.85 140.55671875 -49.125 140.5859375 C-56.7633864 140.60201831 -62.51118206 139.51472421 -69.40087891 136.17382812 C-71.95519827 135.02023358 -74.2412943 134.43601129 -77 134 C-77 133.34 -77 132.68 -77 132 C-78.00675781 131.76925781 -79.01351562 131.53851562 -80.05078125 131.30078125 C-84.37373928 130.06145349 -87.60347804 127.84131778 -91.1875 125.1875 C-91.79013672 124.76146484 -92.39277344 124.33542969 -93.01367188 123.89648438 C-96.62369036 121.27714056 -99.3205939 118.61137344 -102 115 C-102.70125 114.34 -103.4025 113.68 -104.125 113 C-106 111 -106 111 -107.0625 108.3125 C-107.371875 107.549375 -107.68125 106.78625 -108 106 C-108.99 105.67 -109.98 105.34 -111 105 C-111.9921875 103.03125 -111.9921875 103.03125 -112.875 100.5 C-114.17992189 96.95161624 -115.61006942 93.8817576 -117.625 90.6875 C-125.46346317 76.79533143 -123.09178012 55.12763843 -120 40 C-119.34 40 -118.68 40 -118 40 C-118 38.68 -118 37.36 -118 36 C-117.34 36 -116.68 36 -116 36 C-115.87625 34.80375 -115.7525 33.6075 -115.625 32.375 C-113.14044595 21.20331724 -103.1014373 11.50501247 -95 4 C-94.48308594 3.42636719 -93.96617187 2.85273437 -93.43359375 2.26171875 C-92 1 -92 1 -89 1 C-88.67 0.01 -88.34 -0.98 -88 -2 C-82.9970808 -4.90169313 -77.6617215 -7.01279216 -72.3125 -9.1875 C-71.67103027 -9.44958252 -71.02956055 -9.71166504 -70.36865234 -9.98168945 C-48.09652612 -18.85063403 -19.47293781 -13.26906701 0 0 Z " fill="#424243" transform="translate(760,600)"/>
<path d="M0 0 C0 0.66 0 1.32 0 2 C0.78375 2.04125 1.5675 2.0825 2.375 2.125 C10.58521211 4.10677534 18.30575281 9.82858125 24 16 C24 16.66 24 17.32 24 18 C24.58394531 18.25136719 25.16789062 18.50273437 25.76953125 18.76171875 C28.28059332 20.15577597 29.79212225 21.66221244 31.6875 23.8125 C32.28949219 24.47894531 32.89148437 25.14539063 33.51171875 25.83203125 C35.17013389 28.24783282 35.62277986 30.11803815 36 33 C36.66 33 37.32 33 38 33 C39.49821059 36.37097383 40 38.20442119 40 42 C40.66 42 41.32 42 42 42 C49.86612223 59.27737561 49.52450687 80.77219261 43.0859375 98.51953125 C42.15307171 100.74551588 41.12231229 102.86398628 40 105 C39.63003906 105.73605469 39.26007813 106.47210938 38.87890625 107.23046875 C28.99493711 126.0586198 11.95139302 140.00515407 -8.1796875 146.3515625 C-9.99430469 146.85136351 -9.99430469 146.85136351 -11 148 C-33.59749209 152.28195908 -54.71828462 148.29800606 -74 136 C-76.51399156 134.14948557 -78.78916847 132.19977738 -81 130 C-82.16015625 128.89591797 -82.16015625 128.89591797 -83.34375 127.76953125 C-98.43126062 112.03858267 -106.2044741 94.22376255 -106.1875 72.4375 C-106.18814453 71.57286133 -106.18878906 70.70822266 -106.18945312 69.81738281 C-106.12674646 62.08451051 -105.29322453 54.62078741 -104 47 C-103.34 47 -102.68 47 -102 47 C-101.34 43.7 -100.68 40.4 -100 37 C-99.34 37 -98.68 37 -98 37 C-98 36.01 -98 35.02 -98 34 C-97.34 34 -96.68 34 -96 34 C-95.63841797 32.69289063 -95.63841797 32.69289063 -95.26953125 31.359375 C-91.16512478 20.49848403 -80.44952077 12.20811539 -71 6 C-70.34 6 -69.68 6 -69 6 C-69 5.34 -69 4.68 -69 4 C-68.3709375 3.82984375 -67.741875 3.6596875 -67.09375 3.484375 C-62.88155434 2.29176539 -58.9981841 1.11619948 -55.1875 -1.0625 C-39.11686599 -9.41794916 -16.31167693 -5.30748707 0 0 Z " fill="#424244" transform="translate(1014,125)"/>
<path d="M0 0 C1.41345703 -0.01836914 1.41345703 -0.01836914 2.85546875 -0.03710938 C18.76278634 -0.07011211 33.02468049 6.45395366 46.125 15.1875 C46.125 15.8475 46.125 16.5075 46.125 17.1875 C46.681875 17.414375 47.23875 17.64125 47.8125 17.875 C50.78659588 19.56300036 52.84508865 21.65426517 55.125 24.1875 C55.125 24.8475 55.125 25.5075 55.125 26.1875 C55.7025 26.414375 56.28 26.64125 56.875 26.875 C59.72239809 28.53598222 61.24567193 30.50274561 63.125 33.1875 C63.125 33.8475 63.125 34.5075 63.125 35.1875 C63.785 35.1875 64.445 35.1875 65.125 35.1875 C65.558125 36.8890625 65.558125 36.8890625 66 38.625 C66.37125 39.800625 66.7425 40.97625 67.125 42.1875 C67.785 42.5175 68.445 42.8475 69.125 43.1875 C76.23064164 58.78660392 77.78296671 80.62293299 73.125 97.1875 C72.83367187 98.28191406 72.54234375 99.37632813 72.2421875 100.50390625 C70.57294628 106.38568142 69.08861543 110.47632645 65.125 115.1875 C64.44807314 116.5053196 63.80114935 117.83905165 63.1875 119.1875 C60.68293241 123.85117757 57.33895543 127.35216794 53.625 131.0625 C53.0669165 131.62195312 52.50883301 132.18140625 51.93383789 132.7578125 C48.84673474 135.76419217 45.85354591 137.99500998 42.125 140.1875 C41.465 141.1775 40.805 142.1675 40.125 143.1875 C22.64115974 154.40109398 1.30391217 156.51013212 -18.875 153.1875 C-18.875 152.5275 -18.875 151.8675 -18.875 151.1875 C-19.49246094 151.16171875 -20.10992188 151.1359375 -20.74609375 151.109375 C-27.18715364 150.67801026 -32.15733058 149.15682108 -37.875 146.1875 C-37.875 145.5275 -37.875 144.8675 -37.875 144.1875 C-38.65875 143.878125 -39.4425 143.56875 -40.25 143.25 C-42.875 142.1875 -42.875 142.1875 -44.875 141.1875 C-44.875 140.5275 -44.875 139.8675 -44.875 139.1875 C-46.195 138.8575 -47.515 138.5275 -48.875 138.1875 C-48.875 137.5275 -48.875 136.8675 -48.875 136.1875 C-49.98875 135.8471875 -49.98875 135.8471875 -51.125 135.5 C-54.40907705 133.93259959 -55.71370845 132.06922206 -57.875 129.1875 C-59.36 128.1975 -59.36 128.1975 -60.875 127.1875 C-61.92144066 125.54959288 -62.9148183 123.87741979 -63.875 122.1875 C-64.7721875 120.95 -64.7721875 120.95 -65.6875 119.6875 C-74.62362606 106.38642006 -78.0733158 92.05095901 -78 76.3125 C-78.00386719 75.45914062 -78.00773438 74.60578125 -78.01171875 73.7265625 C-78.01042969 72.911875 -78.00914062 72.0971875 -78.0078125 71.2578125 C-78.00668457 70.52320801 -78.00555664 69.78860352 -78.00439453 69.03173828 C-77.875 67.1875 -77.875 67.1875 -76.875 65.1875 C-76.55579631 63.37964638 -76.26920775 61.56597161 -76 59.75 C-75.04336083 53.75651065 -73.59242809 48.00385648 -71.875 42.1875 C-71.215 42.1875 -70.555 42.1875 -69.875 42.1875 C-69.813125 41.1975 -69.813125 41.1975 -69.75 40.1875 C-68.46228316 35.77247085 -65.72730296 32.73321997 -62.875 29.1875 C-62.1325 28.1975 -61.39 27.2075 -60.625 26.1875 C-59.75875 25.1975 -59.75875 25.1975 -58.875 24.1875 C-58.215 24.1875 -57.555 24.1875 -56.875 24.1875 C-56.545 23.1975 -56.215 22.2075 -55.875 21.1875 C-54.1328125 19.3984375 -54.1328125 19.3984375 -52 17.5625 C-51.30132813 16.95148438 -50.60265625 16.34046875 -49.8828125 15.7109375 C-47.875 14.1875 -47.875 14.1875 -44.875 13.1875 C-44.545 12.5275 -44.215 11.8675 -43.875 11.1875 C-39.59065833 7.97424375 -35.02823289 7.14180239 -29.875 6.1875 C-29.875 5.5275 -29.875 4.8675 -29.875 4.1875 C-28.02203165 3.70372009 -26.16755559 3.22571364 -24.3125 2.75 C-22.76369141 2.34974609 -22.76369141 2.34974609 -21.18359375 1.94140625 C-14.08073393 0.32292698 -7.25110089 0.00491934 0 0 Z " fill="#424244" transform="translate(985.875,1052.8125)"/>
<path d="M0 0 C1.3619751 0.00737183 1.3619751 0.00737183 2.75146484 0.01489258 C14.94009416 0.22363864 27.26195346 1.84217183 37.875 8.3125 C38.37 9.3025 38.37 9.3025 38.875 10.3125 C39.9475 10.745625 41.02 11.17875 42.125 11.625 C45.88172752 13.14778873 48.23015144 15.20091346 50.875 18.3125 C51.205 19.3025 51.535 20.2925 51.875 21.3125 C52.62523437 21.59738281 53.37546875 21.88226562 54.1484375 22.17578125 C60.1801315 24.69042732 65.22353069 32.08635344 67.6875 38.0625 C68.2753125 39.67125 68.2753125 39.67125 68.875 41.3125 C70.14468359 43.68559908 71.51567752 45.98849705 72.875 48.3125 C77.32684809 56.47215472 77.19097194 65.74135774 77.125 74.8125 C77.13273438 75.87597656 77.14046875 76.93945312 77.1484375 78.03515625 C77.11732707 90.71265704 74.01509488 101.80847813 68.875 113.3125 C68.215 113.3125 67.555 113.3125 66.875 113.3125 C66.78347656 113.86421875 66.69195312 114.4159375 66.59765625 114.984375 C62.9633361 126.69277937 50.13918064 137.35307018 39.875 143.3125 C36.91147867 144.83390644 33.90774283 146.24733446 30.875 147.625 C30.13975098 147.96273437 29.40450195 148.30046875 28.64697266 148.6484375 C11.37254138 156.19192395 -9.86253374 155.45483471 -27.578125 149.796875 C-31.04270765 148.34693953 -33.30355496 146.74630302 -36.125 144.3125 C-37.97445789 143.31604261 -37.97445789 143.31604261 -39.8125 142.5625 C-50.45206145 137.35250837 -60.03084224 127.79325536 -65.21875 117.046875 C-66.13192624 114.96081285 -66.13192624 114.96081285 -69.125 113.3125 C-70.01635742 111.34472656 -70.01635742 111.34472656 -70.73046875 108.953125 C-70.99150391 108.08429688 -71.25253906 107.21546875 -71.52148438 106.3203125 C-71.78251953 105.41023437 -72.04355469 104.50015625 -72.3125 103.5625 C-72.58513672 102.66789063 -72.85777344 101.77328125 -73.13867188 100.8515625 C-74.49941423 96.22708471 -75.48808831 92.18595196 -75.125 87.3125 C-75.785 87.3125 -76.445 87.3125 -77.125 87.3125 C-77.85169055 68.92319188 -75.03092556 53.94129677 -67.125 37.3125 C-66.465 37.3125 -65.805 37.3125 -65.125 37.3125 C-64.92519531 36.47203125 -64.72539062 35.6315625 -64.51953125 34.765625 C-62.7213538 30.31299511 -60.09556255 27.50224589 -56.8125 24.0625 C-56.24337891 23.43859375 -55.67425781 22.8146875 -55.08789062 22.171875 C-52.01414864 18.89698112 -49.57854145 16.54913065 -45.125 15.3125 C-45.125 14.6525 -45.125 13.9925 -45.125 13.3125 C-43.805 12.9825 -42.485 12.6525 -41.125 12.3125 C-41.125 11.6525 -41.125 10.9925 -41.125 10.3125 C-40.36316406 10.07015625 -39.60132813 9.8278125 -38.81640625 9.578125 C-33.92510882 7.99043794 -29.14494417 6.40573187 -24.5 4.1875 C-16.70687507 0.60859463 -8.48260675 -0.05514414 0 0 Z " fill="#424244" transform="translate(311.125,819.6875)"/>
<path d="M0 0 C1.13687256 0.00088623 2.27374512 0.00177246 3.44506836 0.00268555 C10.70067459 0.10305451 17.64523084 0.70159857 24.75 2.1875 C25.94459839 2.4352417 25.94459839 2.4352417 27.16333008 2.68798828 C29.34765625 3.20703125 29.34765625 3.20703125 32.6875 4.375 C33.1825 5.86 33.1825 5.86 33.6875 7.375 C35.66834507 8.09659356 37.67238464 8.75552076 39.6875 9.375 C47.41382096 13.50103827 54.81921512 18.8426088 60.6875 25.375 C61.33984375 27.58984375 61.33984375 27.58984375 61.6875 29.375 C62.326875 29.66375 62.96625 29.9525 63.625 30.25 C65.6875 31.375 65.6875 31.375 66.9375 34.5 C67.185 35.44875 67.4325 36.3975 67.6875 37.375 C68.3475 37.375 69.0075 37.375 69.6875 37.375 C70.52962256 39.28782125 71.36088864 41.20542473 72.1875 43.125 C72.6515625 44.19234375 73.115625 45.2596875 73.59375 46.359375 C74.6875 49.375 74.6875 49.375 74.6875 53.375 C75.3475 53.375 76.0075 53.375 76.6875 53.375 C80.51624887 59.50099819 79.85406456 67.76081307 79.8125 74.75 C79.80839111 75.58345947 79.80428223 76.41691895 79.80004883 77.27563477 C79.65618394 93.12707022 79.65618394 93.12707022 75.6875 98.375 C74.91088295 100.61149382 74.91088295 100.61149382 74.375 103 C72.73820553 108.78390586 69.99759519 113.3945327 66.6875 118.375 C65.759375 119.78652344 65.759375 119.78652344 64.8125 121.2265625 C61.30157378 126.41980754 61.30157378 126.41980754 59.6875 128.375 C59.0275 128.375 58.3675 128.375 57.6875 128.375 C57.48382812 128.91898438 57.28015625 129.46296875 57.0703125 130.0234375 C55.13419716 133.31592743 52.43806839 135.55576687 49.5625 138 C49.01851562 138.48984375 48.47453125 138.9796875 47.9140625 139.484375 C43.69037582 143.09621922 40.14555299 144.35982603 34.6875 145.375 C34.6875 146.035 34.6875 146.695 34.6875 147.375 C32.64740245 148.02577296 30.60534331 148.67039824 28.5625 149.3125 C27.42554688 149.67214844 26.28859375 150.03179688 25.1171875 150.40234375 C17.71745709 152.50090055 10.61349641 152.56122804 2.96679688 152.56030273 C0.95681243 152.56247909 -1.05261306 152.58064353 -3.0625 152.59960938 C-10.39365688 152.6105623 -17.20347352 152.2300313 -24.3125 150.375 C-24.3125 149.715 -24.3125 149.055 -24.3125 148.375 C-25.529375 148.230625 -26.74625 148.08625 -28 147.9375 C-37.1191813 145.94313071 -45.00564227 138.93282266 -51.3125 132.375 C-52.488125 131.26125 -52.488125 131.26125 -53.6875 130.125 C-63.43808502 119.9101014 -63.43808502 119.9101014 -64.3125 113.375 C-64.9725 113.375 -65.6325 113.375 -66.3125 113.375 C-66.3125 112.715 -66.3125 112.055 -66.3125 111.375 C-66.9725 111.375 -67.6325 111.375 -68.3125 111.375 C-68.395 110.240625 -68.4775 109.10625 -68.5625 107.9375 C-69.06492051 103.75558813 -70.45941911 100.47161688 -72.375 96.74609375 C-74.77596608 90.67365038 -74.47398776 84.05535962 -74.4375 77.625 C-74.43266602 76.73828613 -74.42783203 75.85157227 -74.42285156 74.93798828 C-74.3270785 64.48531653 -73.78992045 55.97542246 -69.3125 46.375 C-68.6525 46.375 -67.9925 46.375 -67.3125 46.375 C-66.6525 43.075 -65.9925 39.775 -65.3125 36.375 C-64.6525 36.375 -63.9925 36.375 -63.3125 36.375 C-63.044375 35.59125 -62.77625 34.8075 -62.5 34 C-61.3125 31.375 -61.3125 31.375 -58.3125 29.375 C-57.9 28.653125 -57.4875 27.93125 -57.0625 27.1875 C-54.70231651 23.39434796 -51.74152657 20.24216197 -48.3125 17.375 C-47.6525 17.375 -46.9925 17.375 -46.3125 17.375 C-46.3125 16.715 -46.3125 16.055 -46.3125 15.375 C-34.25866154 4.13247759 -15.93971003 -0.02223112 0 0 Z " fill="#424244" transform="translate(982.3125,586.625)"/>
<path d="M0 0 C1.00877197 0.00386719 2.01754395 0.00773438 3.05688477 0.01171875 C10.10815761 0.0935583 16.8106379 0.59363752 23.6875 2.25 C23.6875 2.91 23.6875 3.57 23.6875 4.25 C24.698125 4.353125 25.70875 4.45625 26.75 4.5625 C31.56469168 5.40316045 35.32017931 7.06633965 39.6875 9.25 C39.6875 9.91 39.6875 10.57 39.6875 11.25 C40.368125 11.311875 41.04875 11.37375 41.75 11.4375 C49.72689218 13.64387443 55.96228739 20.77470864 60.6875 27.25 C60.6875 27.91 60.6875 28.57 60.6875 29.25 C61.3475 29.25 62.0075 29.25 62.6875 29.25 C65.6875 32.71153846 65.6875 32.71153846 65.6875 35.25 C66.3475 35.25 67.0075 35.25 67.6875 35.25 C74.76876596 49.73176932 77.85713675 63.04007663 77.9375 79.0625 C77.9684375 80.58713867 77.9684375 80.58713867 78 82.14257812 C78.04837655 91.63042836 76.22656668 100.01870484 71.75 108.4375 C71.22664062 109.43265625 70.70328125 110.4278125 70.1640625 111.453125 C69.67679688 112.37609375 69.18953125 113.2990625 68.6875 114.25 C67.99745025 115.7279789 67.30959772 117.20698785 66.625 118.6875 C64.83580552 122.23679637 62.64689013 124.55366677 59.6875 127.25 C59.0378125 127.92933594 58.388125 128.60867188 57.71875 129.30859375 C43.15549563 144.51283643 25.09929215 152.95984372 4.03515625 153.64990234 C-9.61677791 153.83842439 -21.63877889 151.50125737 -33.98046875 145.3984375 C-36.34376056 144.18642938 -36.34376056 144.18642938 -39.05078125 143.2265625 C-41.3125 142.25 -41.3125 142.25 -42.3125 140.25 C-43.04726563 139.81816406 -43.78203125 139.38632812 -44.5390625 138.94140625 C-60.09659112 129.45350499 -69.41534215 111.25074519 -74.25 94.25 C-77.53704201 77.60805776 -75.92281653 61.11918104 -70.3125 45.25 C-69.6525 45.25 -68.9925 45.25 -68.3125 45.25 C-68.24933594 44.41210938 -68.18617188 43.57421875 -68.12109375 42.7109375 C-67.08850326 38.29125069 -65.05257881 35.47264445 -62.375 31.875 C-61.69147461 30.91400391 -61.69147461 30.91400391 -60.99414062 29.93359375 C-59.82523504 28.32827392 -58.57466507 26.78307904 -57.3125 25.25 C-56.6525 25.25 -55.9925 25.25 -55.3125 25.25 C-54.9825 24.26 -54.6525 23.27 -54.3125 22.25 C-53.6525 22.25 -52.9925 22.25 -52.3125 22.25 C-51.9825 21.26 -51.6525 20.27 -51.3125 19.25 C-46.67847567 14.78182496 -42.76210074 12.03653668 -36.3125 11.25 C-36.065 10.63769531 -35.8175 10.02539062 -35.5625 9.39453125 C-33.67222592 6.15152978 -31.24771183 5.7946771 -27.75 4.625 C-26.57308594 4.22023438 -25.39617188 3.81546875 -24.18359375 3.3984375 C-16.02303523 0.89689099 -8.54838097 -0.07924995 0 0 Z " fill="#414143" transform="translate(579.3125,819.75)"/>
<path d="M0 0 C26.4 0 52.8 0 80 0 C80 9.9 80 19.8 80 30 C80.495 34.455 80.495 34.455 81 39 C54.27 39 27.54 39 0 39 C0 26.13 0 13.26 0 0 Z " fill="#454547" transform="translate(406,411)"/>
<path d="M0 0 C26.4 0 52.8 0 80 0 C80 12.87 80 25.74 80 39 C53.6 39 27.2 39 0 39 C0 26.13 0 13.26 0 0 Z " fill="#434345" transform="translate(406,877)"/>
<path d="M0 0 C3.59272061 0.60013843 5.5508269 2.04989689 8.3125 4.375 C12.06486697 7.38178265 15.48928377 9.25902181 20 11 C22.5707871 12.27740974 25.12077035 13.5903216 27.66796875 14.9140625 C29.78971962 15.90208049 31.71572496 16.52739137 34 17 C33.67 19.64 33.34 22.28 33 25 C31.515 25.495 31.515 25.495 30 26 C28.30718907 28.77713308 28.30718907 28.77713308 26.8125 32.0625 C26.28269531 33.16722656 25.75289062 34.27195312 25.20703125 35.41015625 C24.80871094 36.26480469 24.41039062 37.11945312 24 38 C23.34 38 22.68 38 22 38 C21.84265381 38.82854492 21.84265381 38.82854492 21.68212891 39.67382812 C20.85647366 42.48944845 19.57931847 44.69197271 18.0859375 47.21875 C17.48910156 48.23453125 16.89226562 49.2503125 16.27734375 50.296875 C15.64957031 51.35390625 15.02179688 52.4109375 14.375 53.5 C13.46814453 55.03914062 13.46814453 55.03914062 12.54296875 56.609375 C11.31750421 58.68926791 10.09068809 60.76836504 8.86254883 62.84667969 C6.97865761 66.03613295 5.09721364 69.22692579 3.22265625 72.421875 C2.67359619 73.35612305 2.12453613 74.29037109 1.55883789 75.25292969 C-0.80323714 79.4155089 -2.92913435 83.68649182 -5 88 C-5.66 88 -6.32 88 -7 88 C-7.66 87.01 -8.32 86.02 -9 85 C-9.721875 84.71125 -10.44375 84.4225 -11.1875 84.125 C-14 83 -14 83 -16.875 80.8125 C-23.28665645 76.03937797 -31.45228534 72.51590489 -39 70 C-38.42612533 66.32087978 -37.43952585 63.64983893 -35.53125 60.4609375 C-35.04269531 59.63335938 -34.55414062 58.80578125 -34.05078125 57.953125 C-33.53902344 57.10234375 -33.02726563 56.2515625 -32.5 55.375 C-31.4871791 53.67591002 -30.47665831 51.97544625 -29.46875 50.2734375 C-29.01951172 49.52497559 -28.57027344 48.77651367 -28.10742188 48.00537109 C-26.865955 45.90084022 -26.865955 45.90084022 -26 43 C-25.34 43 -24.68 43 -24 43 C-24 42.34 -24 41.68 -24 41 C-23.34 41 -22.68 41 -22 41 C-21.76539063 40.19304688 -21.53078125 39.38609375 -21.2890625 38.5546875 C-19.69999965 34.1727263 -17.59350886 30.21537571 -15.375 26.125 C-14.95476562 25.34125 -14.53453125 24.5575 -14.1015625 23.75 C-13.0718978 21.83107943 -12.03652433 19.91522397 -11 18 C-10.34 18 -9.68 18 -9 18 C-8.01 14.7 -7.02 11.4 -6 8 C-5.34 8 -4.68 8 -4 8 C-3.71125 7.236875 -3.4225 6.47375 -3.125 5.6875 C-2 3 -2 3 0 0 Z " fill="#454547" transform="translate(1054,503)"/>
<path d="M0 0 C0.66 0 1.32 0 2 0 C2.81498562 1.6029053 3.62689927 3.20737278 4.4375 4.8125 C5.11619141 6.15248047 5.11619141 6.15248047 5.80859375 7.51953125 C7 10 7 10 8 13 C8.66 13.61875 9.32 14.2375 10 14.875 C12.27060644 17.28751935 12.64008575 18.76077175 13 22 C13.66 22 14.32 22 15 22 C15.495 24.475 15.495 24.475 16 27 C16.66 27 17.32 27 18 27 C18.29132813 27.60585938 18.58265625 28.21171875 18.8828125 28.8359375 C21.60768101 34.40563727 24.564774 39.71772587 27.86328125 44.96875 C29 47 29 47 29 49 C29.66 49 30.32 49 31 49 C31.67154933 50.28913487 32.33708859 51.58140204 33 52.875 C33.37125 53.59429688 33.7425 54.31359375 34.125 55.0546875 C35 57 35 57 35 59 C35.66 59 36.32 59 37 59 C37.99 62.96 37.99 62.96 39 67 C39.66 67 40.32 67 41 67 C41 68.65 41 70.3 41 72 C40.17757813 72.21914063 39.35515625 72.43828125 38.5078125 72.6640625 C28.08204666 75.62565418 20.03037317 79.99974703 11.7890625 86.99609375 C10 88 10 88 7.91015625 87.91796875 C5.32826562 86.67718286 4.93910385 85.49079285 3.8125 82.875 C1.26341861 77.33595837 -1.81021474 72.24299403 -5.0534668 67.09130859 C-8 62.31823661 -8 62.31823661 -8 59 C-8.66 59 -9.32 59 -10 59 C-10.83819158 57.37750059 -11.6704116 55.75191503 -12.5 54.125 C-12.9640625 53.22007812 -13.428125 52.31515625 -13.90625 51.3828125 C-15 49 -15 49 -15 47 C-15.66 47 -16.32 47 -17 47 C-17.33 45.35 -17.66 43.7 -18 42 C-18.66 42 -19.32 42 -20 42 C-23.56095506 37.47535413 -25.81017262 32.27549323 -28 27 C-28.5775 26.113125 -29.155 25.22625 -29.75 24.3125 C-31 22 -31 22 -30.6875 19.6875 C-30.460625 19.130625 -30.23375 18.57375 -30 18 C-27.69 17.34 -25.38 16.68 -23 16 C-23 15.34 -23 14.68 -23 14 C-21.58521865 13.35004703 -20.16808513 12.70521278 -18.75 12.0625 C-17.96109375 11.70285156 -17.1721875 11.34320312 -16.359375 10.97265625 C-14.24176302 10.09966721 -12.23330638 9.48661492 -10 9 C-10 8.34 -10 7.68 -10 7 C-8.06640625 5.52734375 -8.06640625 5.52734375 -5.5625 3.9375 C-2.6281857 2.16321108 -2.6281857 2.16321108 0 0 Z " fill="#454546" transform="translate(1047,735)"/>
<path d="M0 0 C0.66 2.31 1.32 4.62 2 7 C2.66 7 3.32 7 4 7 C4.495 9.475 4.495 9.475 5 12 C5.66 12 6.32 12 7 12 C7.24492187 12.52464844 7.48984375 13.04929687 7.7421875 13.58984375 C10.95752311 20.25334962 14.63364195 26.59169185 18.43310547 32.93334961 C25 43.92940492 25 43.92940492 25 47 C25.66 47 26.32 47 27 47 C27.43699219 47.90878906 27.43699219 47.90878906 27.8828125 48.8359375 C30.57642798 54.34175529 33.49092635 59.59131129 36.765625 64.7734375 C37.93359118 66.88021194 38.5487399 68.64700093 39 71 C38.31035156 71.23074219 37.62070312 71.46148438 36.91015625 71.69921875 C26.77665153 75.21605921 18.88198295 79.85556909 10.48046875 86.5234375 C8 88 8 88 5.859375 88.0078125 C3.2968123 86.61886045 2.47582943 85.0369459 1.0625 82.5 C0.55332031 81.59765625 0.04414063 80.6953125 -0.48046875 79.765625 C-0.98191406 78.85296875 -1.48335937 77.9403125 -2 77 C-2.47050781 76.19046875 -2.94101563 75.3809375 -3.42578125 74.546875 C-5.78459923 70.4554739 -7.70933751 66.5759852 -9 62 C-9.66 62 -10.32 62 -11 62 C-11.25652344 61.45214844 -11.51304687 60.90429688 -11.77734375 60.33984375 C-14.83404407 54.01031278 -18.31289336 48.03559006 -22.05249023 42.09155273 C-25 37.32031415 -25 37.32031415 -25 34 C-25.66 34 -26.32 34 -27 34 C-27.33 32.35 -27.66 30.7 -28 29 C-28.66 29 -29.32 29 -30 29 C-31.4606285 26.35261084 -32 25.10551666 -32 22 C-32.66 22 -33.32 22 -34 22 C-34 21.01 -34 20.02 -34 19 C-32.35 18.67 -30.7 18.34 -29 18 C-29 17.34 -29 16.68 -29 16 C-27.989375 15.5875 -26.97875 15.175 -25.9375 14.75 C-23.24471718 13.60843487 -20.7581509 12.31525139 -18.25 10.8125 C-15 9 -15 9 -12 9 C-12 8.34 -12 7.68 -12 7 C-10.02053408 5.63636792 -8.0180755 4.30581356 -6 3 C-5.443125 2.4225 -4.88625 1.845 -4.3125 1.25 C-3 0 -3 0 0 0 Z " fill="#444446" transform="translate(242,735)"/>
<path d="M0 0 C0.495 1.485 0.495 1.485 1 3 C1.66 3.33 2.32 3.66 3 4 C4.0703125 5.77734375 4.0703125 5.77734375 5.125 7.9375 C5.47820313 8.64777344 5.83140625 9.35804688 6.1953125 10.08984375 C7 12 7 12 7 14 C7.66 14 8.32 14 9 14 C9.495 16.475 9.495 16.475 10 19 C10.66 19 11.32 19 12 19 C12.67154933 20.28913487 13.33708859 21.58140204 14 22.875 C14.37125 23.59429688 14.7425 24.31359375 15.125 25.0546875 C16 27 16 27 16 29 C16.66 29 17.32 29 18 29 C18.28875 30.134375 18.5775 31.26875 18.875 32.4375 C19.24625 33.613125 19.6175 34.78875 20 36 C20.99 36.495 20.99 36.495 22 37 C22.625 39.5625 22.625 39.5625 23 42 C23.66 42 24.32 42 25 42 C25.495 44.475 25.495 44.475 26 47 C26.66 47 27.32 47 28 47 C28.66 49.31 29.32 51.62 30 54 C30.66 54 31.32 54 32 54 C32.495 56.475 32.495 56.475 33 59 C33.66 59 34.32 59 35 59 C35.67667998 60.24460783 36.34094719 61.49596896 37 62.75 C37.37125 63.44609375 37.7425 64.1421875 38.125 64.859375 C39 67 39 67 39 71 C37.83984375 71.34611328 37.83984375 71.34611328 36.65625 71.69921875 C30.74625915 73.54974806 25.60989402 75.48420925 20.5234375 79.046875 C19 80 19 80 17 80 C17 80.66 17 81.32 17 82 C11.58823529 86 11.58823529 86 9 86 C9 86.66 9 87.32 9 88 C8.01 88.33 7.02 88.66 6 89 C4.82539808 87.06730041 3.66055528 85.12866687 2.5 83.1875 C1.8503125 82.10855469 1.200625 81.02960938 0.53125 79.91796875 C-1 77 -1 77 -1 74 C-1.66 74 -2.32 74 -3 74 C-3.33 72.35 -3.66 70.7 -4 69 C-4.66 69 -5.32 69 -6 69 C-6.61875 67.6696875 -6.61875 67.6696875 -7.25 66.3125 C-8.84392997 63.03213675 -8.84392997 63.03213675 -10.9375 60.625 C-13.04551402 57.94207306 -14.39918093 55.36597751 -15.8671875 52.30859375 C-18.7660886 46.40083323 -22.00588327 40.65103622 -25.375 35 C-27 32 -27 32 -27 29 C-27.66 29 -28.32 29 -29 29 C-29.33 27.35 -29.66 25.7 -30 24 C-30.66 24 -31.32 24 -32 24 C-32.33 22.02 -32.66 20.04 -33 18 C-32.34773437 17.81824219 -31.69546875 17.63648438 -31.0234375 17.44921875 C-22.22293261 15.04345876 -22.22293261 15.04345876 -14.875 9.875 C-12.87501188 7.87501188 -11.75384593 7.39340656 -9 7 C-9 6.34 -9 5.68 -9 5 C-7.68 4.67 -6.36 4.34 -5 4 C-5 3.34 -5 2.68 -5 2 C-2 0 -2 0 0 0 Z " fill="#454547" transform="translate(645,502)"/>
<path d="M0 0 C2.54391594 1.19684234 3.3221598 2.46073879 4.734375 4.87109375 C5.16234375 5.58136719 5.5903125 6.29164063 6.03125 7.0234375 C6.984375 8.93359375 6.984375 8.93359375 6.984375 10.93359375 C7.644375 10.93359375 8.304375 10.93359375 8.984375 10.93359375 C9.644375 13.57359375 10.304375 16.21359375 10.984375 18.93359375 C11.644375 18.93359375 12.304375 18.93359375 12.984375 18.93359375 C13.23832031 19.54847656 13.49226562 20.16335938 13.75390625 20.796875 C14.09808594 21.60511719 14.44226563 22.41335938 14.796875 23.24609375 C15.13332031 24.04660156 15.46976563 24.84710937 15.81640625 25.671875 C16.98456279 27.9339574 18.18071975 29.17690869 19.984375 30.93359375 C21.15234375 32.90625 21.15234375 32.90625 22.171875 34.99609375 C22.51605469 35.68832031 22.86023438 36.38054688 23.21484375 37.09375 C23.984375 38.93359375 23.984375 38.93359375 23.984375 40.93359375 C24.644375 40.93359375 25.304375 40.93359375 25.984375 40.93359375 C26.35949219 41.69542969 26.73460937 42.45726562 27.12109375 43.2421875 C30.75788901 50.57990288 34.42613824 57.87570096 38.796875 64.80859375 C39.984375 66.93359375 39.984375 66.93359375 39.984375 69.93359375 C36.519375 70.92359375 36.519375 70.92359375 32.984375 71.93359375 C32.984375 72.59359375 32.984375 73.25359375 32.984375 73.93359375 C31.788125 74.22234375 30.591875 74.51109375 29.359375 74.80859375 C23.76050944 76.62733352 19.42406736 79.94215442 14.77099609 83.44091797 C12.17644873 85.39027194 10.08814772 86.89900284 6.984375 87.93359375 C6.45972656 87.00804687 5.93507813 86.0825 5.39453125 85.12890625 C2.45795081 79.99021375 -0.56357611 74.90179108 -3.578125 69.80859375 C-4.15498047 68.83277344 -4.73183594 67.85695313 -5.32617188 66.8515625 C-8.45040569 61.5390174 -8.45040569 61.5390174 -11.70288086 56.30517578 C-13.015625 53.93359375 -13.015625 53.93359375 -13.015625 50.93359375 C-13.675625 50.93359375 -14.335625 50.93359375 -15.015625 50.93359375 C-15.4075 50.12921875 -15.799375 49.32484375 -16.203125 48.49609375 C-20.58100246 39.89130013 -25.37867104 31.44823091 -30.6953125 23.38671875 C-32.015625 20.93359375 -32.015625 20.93359375 -32.015625 16.93359375 C-28.550625 16.43859375 -28.550625 16.43859375 -25.015625 15.93359375 C-25.015625 15.27359375 -25.015625 14.61359375 -25.015625 13.93359375 C-24.49355469 13.72605469 -23.97148438 13.51851562 -23.43359375 13.3046875 C-16.53040859 10.41526324 -8.46968464 6.84303936 -3.4453125 1.15625 C-2.015625 -0.06640625 -2.015625 -0.06640625 0 0 Z " fill="#454546" transform="translate(644.015625,969.06640625)"/>
<path d="M0 0 C0.99 0 1.98 0 3 0 C7 6.75 7 6.75 7 9 C7.66 9 8.32 9 9 9 C9.495 11.475 9.495 11.475 10 14 C10.66 14 11.32 14 12 14 C12.44730469 14.9178125 12.89460938 15.835625 13.35546875 16.78125 C16.33142101 22.83799389 19.31684221 28.74608825 23.015625 34.40234375 C24.30426636 36.49382912 25.09961208 38.71901728 26 41 C26.70125 42.051875 27.4025 43.10375 28.125 44.1875 C30 47 30 47 30 49 C30.66 49 31.32 49 32 49 C32.495 51.475 32.495 51.475 33 54 C33.66 54 34.32 54 35 54 C40.55580866 64.37357631 40.55580866 64.37357631 41 70 C38.35261084 71.4606285 37.10551666 72 34 72 C34 72.66 34 73.32 34 74 C32.576875 74.556875 32.576875 74.556875 31.125 75.125 C24.87983186 77.82870084 18.33385562 80.88010516 14.125 86.375 C13.42375 87.24125 12.7225 88.1075 12 89 C10.68 89 9.36 89 8 89 C7.60167969 87.92105469 7.60167969 87.92105469 7.1953125 86.8203125 C5.59770546 83.05079523 3.43285507 79.75315464 1.2421875 76.3046875 C0 74 0 74 0 71 C-0.66 71 -1.32 71 -2 71 C-3.4606285 68.35261084 -4 67.10551666 -4 64 C-4.66 64 -5.32 64 -6 64 C-8.07598196 60.44117378 -10.07780252 56.89516371 -11.875 53.1875 C-14.74164121 47.36357281 -18.17027732 41.84010318 -21.68359375 36.38671875 C-23 34 -23 34 -23 31 C-23.66 31 -24.32 31 -25 31 C-25.33 29.35 -25.66 27.7 -26 26 C-26.99 25.67 -27.98 25.34 -29 25 C-30.1875 21.9375 -30.1875 21.9375 -31 19 C-29.5437455 18.32880451 -28.08492133 17.66318193 -26.625 17 C-25.81289063 16.62875 -25.00078125 16.2575 -24.1640625 15.875 C-22 15 -22 15 -20 15 C-20 14.34 -20 13.68 -20 13 C-18.35 12.67 -16.7 12.34 -15 12 C-15 11.34 -15 10.68 -15 10 C-13.37750059 9.16180842 -11.75191503 8.3295884 -10.125 7.5 C-9.22007813 7.0359375 -8.31515625 6.571875 -7.3828125 6.09375 C-5 5 -5 5 -3 5 C-2.67 4.01 -2.34 3.02 -2 2 C-1.34 2 -0.68 2 0 2 C0 1.34 0 0.68 0 0 Z " fill="#444446" transform="translate(1046,269)"/>
<path d="M0 0 C3.48968855 1.35035775 6.28584523 3.63071139 9.25 5.875 C16.71612995 11.35345827 24.3900222 14.68304134 33 18 C32.18174726 21.65433265 30.73565302 24.6796203 29 28 C28.34 28 27.68 28 27 28 C26.87181885 28.58918213 26.7436377 29.17836426 26.61157227 29.78540039 C25.64382239 33.28977529 23.73605866 36.30397476 21.9375 39.4375 C21.53772949 40.14181152 21.13795898 40.84612305 20.72607422 41.57177734 C17.52401238 47.17633292 14.17188447 52.6741748 10.7265625 58.1328125 C8.98490175 61.02507266 7.48143774 63.96755424 6 67 C2.36864888 73.90205436 -1.75791461 80.45960899 -6 87 C-10.96933896 86.24308082 -12.44946265 84.55053735 -16 81 C-18.2588767 79.59917717 -20.56009197 78.34650472 -22.9140625 77.11328125 C-25 76 -25 76 -28 74 C-29.5064018 73.43879149 -31.02907729 72.92001028 -32.5625 72.4375 C-34.81449343 71.72381407 -36.88644704 71.05677648 -39 70 C-38.86680883 63.87320636 -36.58347415 60.52603257 -32.88671875 55.72265625 C-30.95508759 52.93518851 -29.50941995 50.13744908 -28.03344727 47.09448242 C-26.35845599 43.69978596 -24.49059456 40.41767741 -22.625 37.125 C-22.04008789 36.0872644 -22.04008789 36.0872644 -21.44335938 35.02856445 C-18.74991899 30.26900681 -15.9744717 25.5671335 -13.09375 20.91796875 C-11.85528098 18.89126851 -11.85528098 18.89126851 -11 16 C-10.34 16 -9.68 16 -9 16 C-8.67 14.35 -8.34 12.7 -8 11 C-7.34 11 -6.68 11 -6 11 C-5.896875 10.278125 -5.79375 9.55625 -5.6875 8.8125 C-4.93217477 5.72253314 -3.80862024 3.60441314 -2 1 C-1.34 0.67 -0.68 0.34 0 0 Z " fill="#444446" transform="translate(651,736)"/>
<path d="M0 0 C2.9262753 1.31177858 4.75289234 2.75289234 7 5 C9.09989652 6.17574711 9.09989652 6.17574711 11 7 C11 7.66 11 8.32 11 9 C13.475 9.495 13.475 9.495 16 10 C16 10.66 16 11.32 16 12 C16.825 12.268125 17.65 12.53625 18.5 12.8125 C28.22222222 16.11111111 28.22222222 16.11111111 32 18 C31.43557957 21.47863419 30.58944541 24.1122837 28.81640625 27.15234375 C28.36797363 27.93077637 27.91954102 28.70920898 27.45751953 29.51123047 C26.97653809 30.33252441 26.49555664 31.15381836 26 32 C25.00827951 33.72999031 24.01741421 35.4604711 23.02734375 37.19140625 C21.47823055 39.88611523 19.92748443 42.57984282 18.37304688 45.27148438 C15.40500094 50.44004335 12.60791423 55.64032975 10 61 C9.34 61 8.68 61 8 61 C7.87616943 61.58410645 7.75233887 62.16821289 7.62475586 62.77001953 C6.99700921 65.01067523 6.17908314 66.67948738 5.00390625 68.6796875 C4.61009766 69.36160156 4.21628906 70.04351563 3.81054688 70.74609375 C2.98292324 72.15784612 2.1548035 73.56930778 1.32617188 74.98046875 C-0.94153312 78.90918442 -2.73983981 82.60665465 -4 87 C-6.203125 87.7265625 -6.203125 87.7265625 -9 88 C-11.359375 86.5234375 -11.359375 86.5234375 -13.75 84.375 C-20.27353613 78.82078573 -27.1236241 75.24321361 -35 72 C-36.33758236 71.34189997 -37.67189267 70.67701784 -39 70 C-38.14504247 64.37259296 -36.90823466 60.38205121 -33.3984375 55.8984375 C-31.21693096 52.93695096 -29.61193729 49.69526798 -27.88671875 46.453125 C-24.93806358 41.05641451 -21.81220314 35.76257996 -18.69482422 30.46191406 C-18.23221191 29.67010742 -17.76959961 28.87830078 -17.29296875 28.0625 C-16.8755542 27.35222656 -16.45813965 26.64195312 -16.02807617 25.91015625 C-14.86454531 23.87889162 -14.86454531 23.87889162 -14 21 C-13.34 21 -12.68 21 -12 21 C-11.67 19.35 -11.34 17.7 -11 16 C-10.34 16 -9.68 16 -9 16 C-8.690625 15.38125 -8.38125 14.7625 -8.0625 14.125 C-7.375 12.75 -6.6875 11.375 -6 10 C-5.34 10 -4.68 10 -4 10 C-3.896875 9.0925 -3.79375 8.185 -3.6875 7.25 C-2.99585051 3.98038425 -2.17865079 2.46282263 0 0 Z " fill="#444446" transform="translate(1055,969)"/>
<path d="M0 0 C0.66 0 1.32 0 2 0 C2 0.66 2 1.32 2 2 C2.86625 2.41572266 2.86625 2.41572266 3.75 2.83984375 C6.63477289 4.32730477 9.29115112 6.09593345 12 7.87890625 C14.00772679 9.00433123 15.75249188 9.55350843 18 10 C18 10.66 18 11.32 18 12 C18.721875 12.28875 19.44375 12.5775 20.1875 12.875 C22.79166667 13.91666667 25.39583333 14.95833333 28 16 C28 16.66 28 17.32 28 18 C29.65 18.33 31.3 18.66 33 19 C32.505 21.475 32.505 21.475 32 24 C31.34 24 30.68 24 30 24 C29.59007812 25.09441406 29.59007812 25.09441406 29.171875 26.2109375 C28.0527458 28.874465 26.77379707 31.17545525 25.25 33.625 C22.59597059 37.97377109 20.12530422 42.39006219 17.703125 46.87109375 C8.37544721 64.00749262 8.37544721 64.00749262 3.1171875 72.203125 C1.34440643 75.0544512 -0.24913941 78.0021769 -1.86328125 80.9453125 C-3.18423654 83.33301863 -4.57412919 85.67357921 -6 88 C-8.9719385 86.87548273 -11.33440687 85.77706209 -14 84 C-14 83.34 -14 82.68 -14 82 C-14.845625 81.773125 -15.69125 81.54625 -16.5625 81.3125 C-19.84151056 80.06051415 -22.08385895 78.47716905 -24.85546875 76.375 C-29.22402992 73.57402817 -34.17469462 71.86198155 -39 70 C-38.67 68.02 -38.34 66.04 -38 64 C-37.34 64 -36.68 64 -36 64 C-35.75765625 62.99582031 -35.5153125 61.99164063 -35.265625 60.95703125 C-34.06474759 56.76554772 -32.06091449 53.35698694 -29.75 49.6875 C-29.35103516 49.03813477 -28.95207031 48.38876953 -28.54101562 47.71972656 C-27.74088972 46.41775036 -26.93756881 45.11773153 -26.13085938 43.81982422 C-24.56949498 41.30721407 -23.03126459 38.78104657 -21.5 36.25 C-21.0359375 35.49203125 -20.571875 34.7340625 -20.09375 33.953125 C-18.86046395 31.89409056 -18.86046395 31.89409056 -18 29 C-17.34 29 -16.68 29 -16 29 C-15.896875 28.236875 -15.79375 27.47375 -15.6875 26.6875 C-14.95288806 23.81583516 -14.3283935 22.76957906 -12 21 C-11.34 21 -10.68 21 -10 21 C-9.89042969 20.40832031 -9.78085937 19.81664062 -9.66796875 19.20703125 C-8.75281262 14.64613118 -7.91149857 10.76068565 -5 7 C-4.34 7 -3.68 7 -3 7 C-2.690625 6.030625 -2.38125 5.06125 -2.0625 4.0625 C-1 1 -1 1 0 0 Z " fill="#444446" transform="translate(651,269)"/>
<path d="M0 0 C2.89073687 1.31913538 5.044397 2.78743667 7.375 4.9375 C10.3662998 7.5799225 13.32364951 9.38599247 17 11 C17 11.66 17 12.32 17 13 C17.79664063 13.18369141 17.79664063 13.18369141 18.609375 13.37109375 C21.53727548 14.14134208 24.38111006 15.09580883 27.25 16.0625 C28.32765625 16.42472656 29.4053125 16.78695312 30.515625 17.16015625 C31.33546875 17.43730469 32.1553125 17.71445312 33 18 C32.41205623 22.00948753 31.15063548 24.84311441 29.0859375 28.31640625 C28.19068359 29.83524414 28.19068359 29.83524414 27.27734375 31.38476562 C26.64957031 32.43341797 26.02179688 33.48207031 25.375 34.5625 C24.46814453 36.09487305 24.46814453 36.09487305 23.54296875 37.65820312 C22.31898527 39.72644812 21.09257351 41.79325794 19.86376953 43.85864258 C15.54519068 51.13754671 11.26561751 58.43700132 7.18359375 65.8515625 C6.36963768 67.32904051 5.54893392 68.80281485 4.72265625 70.2734375 C2.00343389 75.11679404 -0.55470756 80.01331192 -3 85 C-3.66573214 86.33380019 -4.33215678 87.66725559 -5 89 C-7.9719385 87.87548273 -10.33440687 86.77706209 -13 85 C-13 84.34 -13 83.68 -13 83 C-13.82242188 82.77441406 -14.64484375 82.54882812 -15.4921875 82.31640625 C-19.78176348 80.70662106 -23.30856887 78.44048406 -27.125 75.9375 C-28.52014564 75.02489556 -29.91848661 74.11715323 -31.3203125 73.21484375 C-31.93148926 72.81386475 -32.54266602 72.41288574 -33.17236328 71.99975586 C-35.10112891 70.94468035 -36.85355238 70.43846744 -39 70 C-38.58630053 65.58720563 -36.70827617 62.7453706 -34.34375 59.13671875 C-32.29542068 55.87963695 -30.67013124 52.4639759 -29 49 C-28.34 49 -27.68 49 -27 49 C-26.7525 47.9275 -26.505 46.855 -26.25 45.75 C-24.98447858 41.95343574 -23.94303961 40.56329257 -21 38 C-20.67 37.34 -20.34 36.68 -20 36 C-19.34 36 -18.68 36 -18 36 C-17.90203125 35.39671875 -17.8040625 34.7934375 -17.703125 34.171875 C-16.74908219 29.07268069 -15.90715085 26.55195532 -12 23 C-10.98034573 20.67518826 -9.97940398 18.34205301 -9 16 C-8.27683594 15.32324219 -8.27683594 15.32324219 -7.5390625 14.6328125 C-5.47918914 12.44746462 -4.87151545 10.27736074 -3.9375 7.4375 C-2.20833333 2.20833333 -2.20833333 2.20833333 0 0 Z " fill="#444446" transform="translate(247,502)"/>
<path d="M0 0 C26.4 0 52.8 0 80 0 C80 12.54 80 25.08 80 38 C53.6 38 27.2 38 0 38 C0 25.46 0 12.92 0 0 Z " fill="#434345" transform="translate(810,178)"/>
<path d="M0 0 C26.4 0 52.8 0 80 0 C80 12.54 80 25.08 80 38 C53.6 38 27.2 38 0 38 C0 25.46 0 12.92 0 0 Z " fill="#434345" transform="translate(810,1111)"/>
<path d="M0 0 C26.4 0 52.8 0 80 0 C79.67 1.65 79.34 3.3 79 5 C78.91283924 6.56330226 78.86944127 8.12958395 78.8671875 9.6953125 C78.86589844 10.57703125 78.86460937 11.45875 78.86328125 12.3671875 C78.86714844 13.27726563 78.87101563 14.18734375 78.875 15.125 C78.87113281 16.011875 78.86726562 16.89875 78.86328125 17.8125 C78.8727065 24.3159198 79.40635093 30.46986022 80 37 C53.6 37 27.2 37 0 37 C0 24.79 0 12.58 0 0 Z " fill="#414143" transform="translate(810,645)"/>
<path d="M0 0 C20.1747311 -0.04010881 20.1747311 -0.04010881 28.74414062 -0.04882812 C34.60197856 -0.05481657 40.45980093 -0.06191689 46.31762695 -0.07543945 C51.03787978 -0.08626834 55.75811592 -0.09227684 60.4783802 -0.09487724 C62.28338954 -0.09673149 64.08839792 -0.10035209 65.89340019 -0.10573006 C68.41259644 -0.11294052 70.9317229 -0.11399094 73.45092773 -0.11352539 C74.20474228 -0.11712067 74.95855682 -0.12071594 75.73521423 -0.12442017 C80.88594784 -0.11405216 80.88594784 -0.11405216 82 1 C82.13568319 4.66344611 82.16461426 7.50615721 81 11 C80.85596652 12.33363703 80.75409577 13.67218046 80.68359375 15.01171875 C80.64169922 15.76904297 80.59980469 16.52636719 80.55664062 17.30664062 C80.51732422 18.09232422 80.47800781 18.87800781 80.4375 19.6875 C80.37272461 20.88342773 80.37272461 20.88342773 80.30664062 22.10351562 C80.20072632 24.06881447 80.09987449 26.03438496 80 28 C79.67 28 79.34 28 79 28 C78.97091643 24.58335127 78.95317309 21.1667345 78.9375 17.75 C78.92912109 16.78191406 78.92074219 15.81382812 78.91210938 14.81640625 C78.90888672 13.88183594 78.90566406 12.94726562 78.90234375 11.984375 C78.89710693 11.12553711 78.89187012 10.26669922 78.88647461 9.38183594 C79 7 79 7 80 3 C54.26 3 28.52 3 2 3 C2 13.56 2 24.12 2 35 C1.67 36.32 1.34 37.64 1 39 C27.4 39 53.8 39 81 39 C80.505 35.535 80.505 35.535 80 32 C80.66 32.33 81.32 32.66 82 33 C82 35.64 82 38.28 82 41 C54.94 41 27.88 41 0 41 C0 27.47 0 13.94 0 0 Z " fill="#C7C7C7" transform="translate(809,643)"/>
<path d="M0 0 C26.4 0 52.8 0 80 0 C80 1.65 80 3.3 80 5 C79.505 3.515 79.505 3.515 79 2 C53.59 2 28.18 2 2 2 C2 11.57 2 21.14 2 31 C1.67 31 1.34 31 1 31 C0.67 20.77 0.34 10.54 0 0 Z " fill="#656567" transform="translate(406,877)"/>
<path d="M0 0 C26.73 0 53.46 0 81 0 C81 7 81 7 80 10 C79.85596652 11.33363703 79.75409577 12.67218046 79.68359375 14.01171875 C79.64169922 14.76904297 79.59980469 15.52636719 79.55664062 16.30664062 C79.51732422 17.09232422 79.47800781 17.87800781 79.4375 18.6875 C79.37272461 19.88342773 79.37272461 19.88342773 79.30664062 21.10351562 C79.20072632 23.06881447 79.09987449 25.03438496 79 27 C78.67 27 78.34 27 78 27 C77.97091643 23.58335127 77.95317309 20.1667345 77.9375 16.75 C77.92912109 15.78191406 77.92074219 14.81382812 77.91210938 13.81640625 C77.90888672 12.88183594 77.90566406 11.94726562 77.90234375 10.984375 C77.89710693 10.12553711 77.89187012 9.26669922 77.88647461 8.38183594 C78 6 78 6 79 2 C52.93 1.67 26.86 1.34 0 1 C0 0.67 0 0.34 0 0 Z " fill="#7E7E7E" transform="translate(810,644)"/>
<path d="M0 0 C-0.56847656 0.12117187 -1.13695312 0.24234375 -1.72265625 0.3671875 C-2.88087891 0.61855469 -2.88087891 0.61855469 -4.0625 0.875 C-4.81660156 1.03742187 -5.57070313 1.19984375 -6.34765625 1.3671875 C-9.12698356 1.99411304 -9.12698356 1.99411304 -12.28515625 3.05859375 C-16.45096907 4.11428343 -20.10811884 4.26215078 -24.375 4.1875 C-25.09816406 4.18685547 -25.82132813 4.18621094 -26.56640625 4.18554688 C-31.85913848 4.14086152 -31.85913848 4.14086152 -33 3 C-35.32817964 2.63239269 -37.6618385 2.29758419 -40 2 C-40 1.67 -40 1.34 -40 1 C-39.12263184 0.97494385 -38.24526367 0.9498877 -37.34130859 0.92407227 C-34.06482809 0.82854616 -30.78850102 0.72933757 -27.51220703 0.62768555 C-26.09818835 0.58455749 -24.68412498 0.54286832 -23.27001953 0.50268555 C-21.2293556 0.4444425 -19.18891205 0.38090859 -17.1484375 0.31640625 C-15.92302246 0.27974854 -14.69760742 0.24309082 -13.43505859 0.20532227 C-1.47249758 -0.5097107 -1.47249758 -0.5097107 0 0 Z " fill="#B3B3B3" transform="translate(1008,738)"/>
<path d="M0 0 C-0.60328125 0.19335938 -1.2065625 0.38671875 -1.828125 0.5859375 C-3.02695312 0.97652344 -3.02695312 0.97652344 -4.25 1.375 C-5.03890625 1.63023437 -5.8278125 1.88546875 -6.640625 2.1484375 C-8.9572501 2.89868577 -8.9572501 2.89868577 -10.72607422 4.03662109 C-13.80807191 5.34235041 -16.40002054 5.25933005 -19.7421875 5.265625 C-21.05574219 5.26820313 -22.36929688 5.27078125 -23.72265625 5.2734375 C-24.40473145 5.26924805 -25.08680664 5.26505859 -25.78955078 5.26074219 C-27.86130306 5.25007055 -29.9321814 5.26063388 -32.00390625 5.2734375 C-33.32003906 5.27085937 -34.63617187 5.26828125 -35.9921875 5.265625 C-37.19214355 5.26336914 -38.39209961 5.26111328 -39.62841797 5.25878906 C-43.05677932 4.99564185 -45.80104716 4.22788089 -49 3 C-45.9432944 1.4716472 -43.34348034 2.50592295 -40 3 C-31.08184889 3.31195179 -21.83148418 3.43933646 -13 2 C-12.67 1.67 -12.34 1.34 -12 1 C-10.36530922 0.57907433 -8.71653706 0.21197742 -7.0625 -0.125 C-6.16660156 -0.31320312 -5.27070312 -0.50140625 -4.34765625 -0.6953125 C-2 -1 -2 -1 0 0 Z " fill="#8E8E8E" transform="translate(744,269)"/>
<path d="M0 0 C0.33 0.66 0.66 1.32 1 2 C0.3503125 3.7325 0.3503125 3.7325 -0.3125 5.5 C-4.76722427 18.25113735 -4.30378572 32.66718248 -4 46 C-4.33 46 -4.66 46 -5 46 C-6.23418648 41.18173596 -6.19120135 36.43945798 -6.1875 31.5 C-6.18814453 30.61666992 -6.18878906 29.73333984 -6.18945312 28.82324219 C-6.13255794 21.71910235 -5.42487862 14.97172755 -4 8 C-3.34 8 -2.68 8 -2 8 C-1.855625 6.865625 -1.71125 5.73125 -1.5625 4.5625 C-1 1 -1 1 0 0 Z " fill="#868688" transform="translate(644,1098)"/>
<path d="M0 0 C0.71285156 0.00644531 1.42570313 0.01289062 2.16015625 0.01953125 C6.93325869 0.08933896 11.54545452 0.40340909 16.25 1.1875 C16.25 1.8475 16.25 2.5075 16.25 3.1875 C17.3225 3.14625 18.395 3.105 19.5 3.0625 C22.90747485 3.1760825 24.45739631 3.40023364 27.25 5.1875 C24.35750374 6.63374813 22.34128096 5.86131051 19.1875 5.3125 C18.10339844 5.12945312 17.01929688 4.94640625 15.90234375 4.7578125 C13.25 4.1875 13.25 4.1875 12.25 3.1875 C10.47130274 3.02985595 8.68681524 2.93649323 6.90234375 2.87109375 C5.82275391 2.82919922 4.74316406 2.78730469 3.63085938 2.74414062 C1.92639648 2.68516602 1.92639648 2.68516602 0.1875 2.625 C-0.95267578 2.58181641 -2.09285156 2.53863281 -3.26757812 2.49414062 C-6.09492195 2.38767161 -8.92235738 2.28565793 -11.75 2.1875 C-7.81387019 0.00118244 -4.42050718 -0.08170993 0 0 Z " fill="#989898" transform="translate(714.75,118.8125)"/>
<path d="M0 0 C0.66 0 1.32 0 2 0 C1.98952637 0.64437012 1.97905273 1.28874023 1.96826172 1.95263672 C1.92619326 4.92671669 1.90051454 7.90073372 1.875 10.875 C1.85824219 11.88820313 1.84148437 12.90140625 1.82421875 13.9453125 C1.7865158 19.82697193 2.21474082 25.13825207 3.66455078 30.84814453 C4.03270893 33.2098228 3.73210809 34.74474838 3 37 C1.64560332 34.29120665 1.93498549 31.99066732 2 29 C1.34 29 0.68 29 0 29 C0 19.43 0 9.86 0 0 Z " fill="#BABABB" transform="translate(503,415)"/>
<path d="M0 0 C0.66 0 1.32 0 2 0 C1.67 2.64 1.34 5.28 1 8 C0.34 8 -0.32 8 -1 8 C-1.66 17.57 -2.32 27.14 -3 37 C-3.33 37 -3.66 37 -4 37 C-4.20127315 25.78461253 -4.25572049 15.03691812 -2 4 C-1.34 4 -0.68 4 0 4 C0 2.68 0 1.36 0 0 Z " fill="#979798" transform="translate(642,636)"/>
<path d="M0 0 C0 0.33 0 0.66 0 1 C-0.58265625 1.08636719 -1.1653125 1.17273438 -1.765625 1.26171875 C-8.04709375 2.33825978 -13.51796169 4.2922864 -19.3359375 6.87890625 C-21.57133869 7.81961027 -23.63501143 8.50122279 -26 9 C-26 8.34 -26 7.68 -26 7 C-24.35 6.67 -22.7 6.34 -21 6 C-20.67 4.68 -20.34 3.36 -20 2 C-18.14375 2.061875 -18.14375 2.061875 -16.25 2.125 C-12.9995264 2.14155177 -12.9995264 2.14155177 -10 1 C-6.75900954 -0.62049523 -3.58490543 -0.11949685 0 0 Z " fill="#B3B3B4" transform="translate(301,820)"/>
<path d="M0 0 C0.66 0.33 1.32 0.66 2 1 C2.0879568 5.145697 2.14071153 9.29115012 2.1875 13.4375 C2.21263672 14.60216797 2.23777344 15.76683594 2.26367188 16.96679688 C2.32319254 24.01007591 1.6631731 29.46439148 -1 36 C-2.07860947 32.4900368 -1.59471706 30.70892573 -0.48925781 27.22998047 C0.59702275 22.27883942 0.1995277 17.10458522 0.125 12.0625 C0.11597656 10.90169922 0.10695313 9.74089844 0.09765625 8.54492188 C0.07421162 5.69639892 0.04139522 2.84830922 0 0 Z " fill="#D1D1D1" transform="translate(1195,882)"/>
<path d="M0 0 C0 2.77264615 -0.3647987 4.88495007 -1 7.5625 C-1.76336923 10.75058972 -1.76336923 10.75058972 -2 14 C-0.68 14.33 0.64 14.66 2 15 C2 15.66 2 16.32 2 17 C-3.75 15.125 -3.75 15.125 -6 14 C-5.62257767 7.83543524 -3.84129692 4.82624485 0 0 Z " fill="#747475" transform="translate(618,792)"/>
<path d="M0 0 C0.33 0 0.66 0 1 0 C1.125 6.625 1.125 6.625 0 10 C-0.14403348 11.33363703 -0.24590423 12.67218046 -0.31640625 14.01171875 C-0.35830078 14.76904297 -0.40019531 15.52636719 -0.44335938 16.30664062 C-0.48267578 17.09232422 -0.52199219 17.87800781 -0.5625 18.6875 C-0.62727539 19.88342773 -0.62727539 19.88342773 -0.69335938 21.10351562 C-0.79927368 23.06881447 -0.90012551 25.03438496 -1 27 C-1.33 27 -1.66 27 -2 27 C-2.05845196 23.62507371 -2.09374742 20.25027913 -2.125 16.875 C-2.14175781 15.92367187 -2.15851562 14.97234375 -2.17578125 13.9921875 C-2.21104528 8.91416745 -2.03333617 4.75512475 0 0 Z " fill="#A2A2A4" transform="translate(890,644)"/>
<path d="M0 0 C0.66 0 1.32 0 2 0 C0.60249952 3.15835107 -1.05198234 5.32272825 -3.5 7.75 C-4.41265625 8.67039062 -4.41265625 8.67039062 -5.34375 9.609375 C-7 11 -7 11 -9 11 C-9 11.66 -9 12.32 -9 13 C-9.66 12.67 -10.32 12.34 -11 12 C-9.92492371 10.70145279 -8.83956264 9.41141639 -7.75 8.125 C-7.14671875 7.40570313 -6.5434375 6.68640625 -5.921875 5.9453125 C-4.02912366 4.02947882 -2.46342273 3.03550955 0 2 C0 1.34 0 0.68 0 0 Z " fill="#6B6B6C" transform="translate(531,370)"/>
<path d="M0 0 C0.66 0.33 1.32 0.66 2 1 C-0.89184336 5.11531555 -3.47758083 6.88953772 -8 9 C-8.33 9.66 -8.66 10.32 -9 11 C-10.32 10.67 -11.64 10.34 -13 10 C-12.31292969 9.52949219 -11.62585937 9.05898438 -10.91796875 8.57421875 C-10.01691406 7.95160156 -9.11585937 7.32898438 -8.1875 6.6875 C-7.29417969 6.07261719 -6.40085937 5.45773437 -5.48046875 4.82421875 C-3.43899254 3.32284963 -1.71537213 1.85214599 0 0 Z " fill="#C7C7C7" transform="translate(1037,252)"/>
<path d="M0 0 C-0.60328125 0.19335938 -1.2065625 0.38671875 -1.828125 0.5859375 C-2.62734375 0.84632813 -3.4265625 1.10671875 -4.25 1.375 C-5.03890625 1.63023437 -5.8278125 1.88546875 -6.640625 2.1484375 C-8.99357682 2.93233343 -8.99357682 2.93233343 -11.03125 4.09375 C-13.27947465 5.12864706 -14.79230057 5.20692331 -17.25 5.125 C-19.10625 5.063125 -19.10625 5.063125 -21 5 C-21 4.67 -21 4.34 -21 4 C-20.43410156 3.86722656 -19.86820313 3.73445313 -19.28515625 3.59765625 C-18.18494141 3.33275391 -18.18494141 3.33275391 -17.0625 3.0625 C-15.96615234 2.80146484 -15.96615234 2.80146484 -14.84765625 2.53515625 C-13.00030102 2.16112431 -13.00030102 2.16112431 -12 1 C-10.36530922 0.57907433 -8.71653706 0.21197742 -7.0625 -0.125 C-6.16660156 -0.31320312 -5.27070312 -0.50140625 -4.34765625 -0.6953125 C-2 -1 -2 -1 0 0 Z " fill="#9A9A9B" transform="translate(744,269)"/>
<path d="M0 0 C0 4.24170573 -1.83750763 6.75139708 -4.6875 9.8125 C-5.120625 10.204375 -5.55375 10.59625 -6 11 C-6.99 10.34 -7.98 9.68 -9 9 C-7.71034824 7.62437146 -6.37310707 6.29233607 -5 5 C-4.34 5 -3.68 5 -3 5 C-2.690625 4.360625 -2.38125 3.72125 -2.0625 3.0625 C-1 1 -1 1 0 0 Z " fill="#CACACA" transform="translate(370,479)"/>
<path d="M0 0 C0 2 0 2 -2 4.0625 C-5.8484773 6.54797492 -8.46684529 6.69266748 -13 7 C-13 6.34 -13 5.68 -13 5 C-12.37351562 4.72285156 -11.74703125 4.44570313 -11.1015625 4.16015625 C-10.28429688 3.79792969 -9.46703125 3.43570313 -8.625 3.0625 C-7.81289062 2.70285156 -7.00078125 2.34320312 -6.1640625 1.97265625 C-1.7751004 0 -1.7751004 0 0 0 Z " fill="#828283" transform="translate(1037,744)"/>
<path d="M0 0 C0.66 0.66 1.32 1.32 2 2 C1.59790008 5.03808825 0.33378427 7.54751432 -1.0625 10.25 C-1.42472656 10.95640625 -1.78695312 11.6628125 -2.16015625 12.390625 C-2.43730469 12.92171875 -2.71445312 13.4528125 -3 14 C-4.37095624 10.30962722 -3.60010967 8.29116165 -2.0625 4.75 C-1.68222656 3.85796875 -1.30195312 2.9659375 -0.91015625 2.046875 C-0.60980469 1.37140625 -0.30945313 0.6959375 0 0 Z " fill="#767677" transform="translate(913,633)"/>
<path d="M0 0 C0.99 0.33 1.98 0.66 3 1 C2.38511719 1.68835938 2.38511719 1.68835938 1.7578125 2.390625 C1.21898437 3.00421875 0.68015625 3.6178125 0.125 4.25 C-0.40867187 4.85328125 -0.94234375 5.4565625 -1.4921875 6.078125 C-2.9797487 7.97418746 -4.00322436 9.81290005 -5 12 C-5.33 11.34 -5.66 10.68 -6 10 C-5.0390625 7.87109375 -5.0390625 7.87109375 -3.625 5.4375 C-3.16351562 4.63183594 -2.70203125 3.82617188 -2.2265625 2.99609375 C-1 1 -1 1 0 0 Z " fill="#848486" transform="translate(651,153)"/>
<path d="M0 0 C0.66 0.33 1.32 0.66 2 1 C1.443125 1.226875 0.88625 1.45375 0.3125 1.6875 C-2.20719021 2.96985002 -2.20719021 2.96985002 -4.4375 5.5625 C-7.1178537 8.11210474 -8.39068083 8.69062979 -12 9 C-8.33494586 5.00175912 -4.88887148 2.39831431 0 0 Z " fill="#808081" transform="translate(679,128)"/>
<path d="M0 0 C1 2 1 2 0.51171875 3.953125 C0.10373047 5.09007812 0.10373047 5.09007812 -0.3125 6.25 C-0.59351563 7.04792969 -0.87453125 7.84585937 -1.1640625 8.66796875 C-1.43992187 9.43753906 -1.71578125 10.20710938 -2 11 C-2.391875 12.175625 -2.78375 13.35125 -3.1875 14.5625 C-3.455625 15.366875 -3.72375 16.17125 -4 17 C-5.10844919 13.67465243 -4.84454356 11.37817425 -4 8 C-3.34 8 -2.68 8 -2 8 C-1.855625 6.865625 -1.71125 5.73125 -1.5625 4.5625 C-1 1 -1 1 0 0 Z " fill="#B4B4B5" transform="translate(644,1098)"/>
<path d="M0 0 C0.66 0.33 1.32 0.66 2 1 C-0.07143201 5.03384128 -1.96615872 6.92856799 -6 9 C-6 8.01 -6 7.02 -6 6 C-5.34 6 -4.68 6 -4 6 C-3.67 5.01 -3.34 4.02 -3 3 C-2.34 3 -1.68 3 -1 3 C-0.67 2.01 -0.34 1.02 0 0 Z " fill="#727274" transform="translate(528,839)"/>
<path d="M0 0 C0.33 1.32 0.66 2.64 1 4 C1.66 4 2.32 4 3 4 C3.33 7.3 3.66 10.6 4 14 C1.46663323 11.46663323 0.09955415 9.62397714 -0.125 5.9609375 C-0.125 3.97352151 -0.06621043 1.98631279 0 0 Z " fill="#929293" transform="translate(640,212)"/>
<path d="M0 0 C0 0.66 0 1.32 0 2 C-0.99 2 -1.98 2 -3 2 C-3.66 3.32 -4.32 4.64 -5 6 C-6.98 6 -8.96 6 -11 6 C-11 5.34 -11 4.68 -11 4 C-9.88625 3.525625 -8.7725 3.05125 -7.625 2.5625 C-1.68 0 -1.68 0 0 0 Z " fill="#717172" transform="translate(224,747)"/>
<path d="M0 0 C2.43184212 2.43184212 2.79751051 4.20052675 3.6875 7.5 C4.09548828 8.96953125 4.09548828 8.96953125 4.51171875 10.46875 C5 13 5 13 4 15 C0.43122553 10.34507678 0.31824005 5.65150436 0 0 Z " fill="#979798" transform="translate(639,676)"/>
<path d="M0 0 C3.63 0.33 7.26 0.66 11 1 C11 1.66 11 2.32 11 3 C12.32 3.33 13.64 3.66 15 4 C13 5 13 5 10.3125 4.1875 C9.219375 3.795625 8.12625 3.40375 7 3 C4.67389625 2.30543195 2.33781618 1.65458853 0 1 C0 0.67 0 0.34 0 0 Z " fill="#B0B0B0" transform="translate(1133,354)"/>
<path d="M0 0 C0.99 0.66 1.98 1.32 3 2 C3 2.99 3 3.98 3 5 C-1.455 6.485 -1.455 6.485 -6 8 C-5 6 -5 6 -2 5 C-0.78130071 2.49552484 -0.78130071 2.49552484 0 0 Z " fill="#757576" transform="translate(278,801)"/>
<path d="M0 0 C0.99 0.66 1.98 1.32 3 2 C3 3.32 3 4.64 3 6 C-1.455 6.495 -1.455 6.495 -6 7 C-3 5 -3 5 0 4 C0 2.68 0 1.36 0 0 Z " fill="#AAAAAB" transform="translate(1086,335)"/>
<path d="M0 0 C0.33 0.66 0.66 1.32 1 2 C-1.3125 4.5 -1.3125 4.5 -4 7 C-4.99 7 -5.98 7 -7 7 C-5.66667905 3.00003714 -3.5042173 2.16217663 0 0 Z " fill="#717172" transform="translate(671,1066)"/>
<path d="M0 0 C0.33 0.66 0.66 1.32 1 2 C-1.47812494 5.45167403 -2.79606135 7.23163306 -7 8 C-6.02133662 6.85373678 -5.04205413 5.70800212 -4.0625 4.5625 C-3.51722656 3.92441406 -2.97195313 3.28632812 -2.41015625 2.62890625 C-1.63204305 1.73008851 -0.84063472 0.84063472 0 0 Z " fill="#CFCFCF" transform="translate(369,947)"/>
<path d="M0 0 C0.93423645 3.01031744 1.04449911 3.86650268 0 7 C-0.66 7 -1.32 7 -2 7 C-2.33 7.99 -2.66 8.98 -3 10 C-3.33 9.34 -3.66 8.68 -4 8 C-3.22265625 6.0546875 -3.22265625 6.0546875 -2.0625 3.875 C-1.49208984 2.78832031 -1.49208984 2.78832031 -0.91015625 1.6796875 C-0.60980469 1.12539063 -0.30945313 0.57109375 0 0 Z " fill="#A9A9A9" transform="translate(248,691)"/>
<path d="M0 0 C0.66 0 1.32 0 2 0 C1.67 1.65 1.34 3.3 1 5 C0.34 5 -0.32 5 -1 5 C-1.33 6.32 -1.66 7.64 -2 9 C-2.66 8.67 -3.32 8.34 -4 8 C-2.68 5.36 -1.36 2.72 0 0 Z " fill="#848485" transform="translate(1043,521)"/>
<path d="M0 0 C0 3.90838866 -1.50567876 5.11594107 -4 8 C-4.99 7.67 -5.98 7.34 -7 7 C-4.69 4.69 -2.38 2.38 0 0 Z " fill="#68686A" transform="translate(260,372)"/>
<path d="M0 0 C0.66 0.33 1.32 0.66 2 1 C0.68 2.65 -0.64 4.3 -2 6 C-3.32 5.67 -4.64 5.34 -6 5 C-4.02 3.35 -2.04 1.7 0 0 Z " fill="#646465" transform="translate(537,832)"/>
<path d="M0 0 C0.66 0 1.32 0 2 0 C2.33 0.99 2.66 1.98 3 3 C2.34 3 1.68 3 1 3 C1 3.66 1 4.32 1 5 C-0.65 5 -2.3 5 -4 5 C-2.71937515 3.2925002 -1.38232443 1.62626404 0 0 Z " fill="#686869" transform="translate(1073,367)"/>
<path d="M0 0 C0.66 0 1.32 0 2 0 C2 0.66 2 1.32 2 2 C4.31 2.66 6.62 3.32 9 4 C6.21176345 5.0326802 5.1322726 5.04509293 2.25 4.0625 C1.5075 3.711875 0.765 3.36125 0 3 C0 2.01 0 1.02 0 0 Z " fill="#C0C0C0" transform="translate(610,337)"/>
<path d="M0 0 C0.33 1.32 0.66 2.64 1 4 C-0.65 5.32 -2.3 6.64 -4 8 C-3.67 6.35 -3.34 4.7 -3 3 C-2.34 3 -1.68 3 -1 3 C-0.67 2.01 -0.34 1.02 0 0 Z " fill="#747475" transform="translate(1047,982)"/>
<path d="M0 0 C-1.75 2 -1.75 2 -4 4 C-5.32 4 -6.64 4 -8 4 C-7.25 2.0625 -7.25 2.0625 -6 0 C-3.40292416 -1.05506206 -2.5386068 -1.2693034 0 0 Z " fill="#878788" transform="translate(1062,354)"/>
</svg>
